%TF.GenerationSoftware,KiCad,Pcbnew,(6.0.0)*%
%TF.CreationDate,2022-07-25T11:20:30-04:00*%
%TF.ProjectId,dual_model_u,6475616c-5f6d-46f6-9465-6c5f752e6b69,rev?*%
%TF.SameCoordinates,Original*%
%TF.FileFunction,Copper,L2,Inr*%
%TF.FilePolarity,Positive*%
%FSLAX46Y46*%
G04 Gerber Fmt 4.6, Leading zero omitted, Abs format (unit mm)*
G04 Created by KiCad (PCBNEW (6.0.0)) date 2022-07-25 11:20:30*
%MOMM*%
%LPD*%
G01*
G04 APERTURE LIST*
%TA.AperFunction,ComponentPad*%
%ADD10C,0.640000*%
%TD*%
%TA.AperFunction,ComponentPad*%
%ADD11O,0.850000X1.700000*%
%TD*%
%TA.AperFunction,ComponentPad*%
%ADD12O,0.950000X1.250000*%
%TD*%
%TA.AperFunction,ComponentPad*%
%ADD13O,1.550000X0.890000*%
%TD*%
%TA.AperFunction,ComponentPad*%
%ADD14R,1.700000X1.700000*%
%TD*%
%TA.AperFunction,ComponentPad*%
%ADD15O,1.700000X1.700000*%
%TD*%
%TA.AperFunction,ViaPad*%
%ADD16C,0.800000*%
%TD*%
G04 APERTURE END LIST*
D10*
%TO.N,GND*%
%TO.C,J1*%
X157220245Y-110522847D03*
%TO.N,+3V3*%
X157620245Y-109822847D03*
%TO.N,TX-*%
X158420245Y-109822847D03*
%TO.N,VBUS*%
X158820245Y-110522847D03*
%TO.N,Net-(J1-PadB5)*%
X159220245Y-109822847D03*
%TO.N,D+*%
X159620245Y-110522847D03*
%TO.N,D-*%
X160420245Y-110522847D03*
%TO.N,unconnected-(J1-PadB8)*%
X160820245Y-109822847D03*
%TO.N,VBUS*%
X161220245Y-110522847D03*
%TO.N,RX-*%
X161620245Y-109822847D03*
%TO.N,DATA*%
X162420245Y-109822847D03*
%TO.N,GND*%
X162820245Y-110522847D03*
D11*
X155900245Y-109932847D03*
X164140245Y-109932847D03*
X155540245Y-105532847D03*
X164510245Y-105532847D03*
%TD*%
D12*
%TO.N,GND*%
%TO.C,J2*%
X148720000Y-106720000D03*
X148720000Y-111720000D03*
D13*
X146020000Y-112720000D03*
X146020000Y-105720000D03*
%TD*%
D14*
%TO.N,DATA*%
%TO.C,J4*%
X152400000Y-106680000D03*
D15*
%TO.N,RX-*%
X152400000Y-109220000D03*
%TO.N,D-*%
X152400000Y-111760000D03*
%TO.N,D+*%
X152400000Y-114300000D03*
%TD*%
D14*
%TO.N,GND*%
%TO.C,J3*%
X167640000Y-106680000D03*
D15*
%TO.N,+3V3*%
X167640000Y-109220000D03*
%TO.N,TX-*%
X167640000Y-111760000D03*
%TO.N,VBUS*%
X167640000Y-114300000D03*
%TD*%
D16*
%TO.N,GND*%
X165100000Y-115316000D03*
X159766000Y-115316000D03*
%TO.N,VBUS*%
X150368000Y-107188000D03*
%TO.N,+3V3*%
X162814000Y-113284000D03*
%TO.N,RX-*%
X156210000Y-107696000D03*
%TO.N,Net-(J1-PadB5)*%
X154533600Y-115697000D03*
%TD*%
%TA.AperFunction,Conductor*%
%TO.N,+3V3*%
G36*
X154724355Y-104414002D02*
G01*
X154770848Y-104467658D01*
X154780952Y-104537932D01*
X154765353Y-104583000D01*
X154693185Y-104707999D01*
X154682753Y-104726067D01*
X154680711Y-104732352D01*
X154632443Y-104880907D01*
X154622115Y-104912692D01*
X154606745Y-105058925D01*
X154606745Y-106006769D01*
X154622115Y-106153002D01*
X154682753Y-106339627D01*
X154780868Y-106509567D01*
X154785286Y-106514474D01*
X154785287Y-106514475D01*
X154892208Y-106633223D01*
X154912171Y-106655394D01*
X154917513Y-106659275D01*
X154917515Y-106659277D01*
X155059431Y-106762385D01*
X155070924Y-106770735D01*
X155076952Y-106773419D01*
X155076954Y-106773420D01*
X155203790Y-106829891D01*
X155250189Y-106850549D01*
X155372534Y-106876554D01*
X155435674Y-106889975D01*
X155435676Y-106889975D01*
X155442130Y-106891347D01*
X155444694Y-106891347D01*
X155508966Y-106917789D01*
X155549597Y-106976009D01*
X155552302Y-107046954D01*
X155523779Y-107100395D01*
X155470960Y-107159056D01*
X155375473Y-107324444D01*
X155316458Y-107506072D01*
X155315768Y-107512633D01*
X155315768Y-107512635D01*
X155301571Y-107647715D01*
X155296496Y-107696000D01*
X155297186Y-107702565D01*
X155314863Y-107870749D01*
X155316458Y-107885928D01*
X155375473Y-108067556D01*
X155470960Y-108232944D01*
X155475378Y-108237851D01*
X155475379Y-108237852D01*
X155594325Y-108369955D01*
X155598747Y-108374866D01*
X155631592Y-108398729D01*
X155674946Y-108454951D01*
X155681022Y-108525687D01*
X155647890Y-108588479D01*
X155608780Y-108615772D01*
X155436954Y-108692274D01*
X155436952Y-108692275D01*
X155430924Y-108694959D01*
X155425583Y-108698839D01*
X155425582Y-108698840D01*
X155311836Y-108781482D01*
X155272171Y-108810300D01*
X155140868Y-108956127D01*
X155098413Y-109029662D01*
X155068818Y-109080922D01*
X155042753Y-109126067D01*
X155040711Y-109132352D01*
X154991685Y-109283240D01*
X154982115Y-109312692D01*
X154966745Y-109458925D01*
X154966745Y-110406769D01*
X154982115Y-110553002D01*
X154984155Y-110559280D01*
X154984155Y-110559281D01*
X155005378Y-110624598D01*
X155042753Y-110739627D01*
X155046056Y-110745349D01*
X155046057Y-110745350D01*
X155056277Y-110763051D01*
X155140868Y-110909567D01*
X155145286Y-110914474D01*
X155145287Y-110914475D01*
X155232552Y-111011393D01*
X155272171Y-111055394D01*
X155277513Y-111059275D01*
X155277515Y-111059277D01*
X155374026Y-111129396D01*
X155417380Y-111185618D01*
X155425792Y-111224738D01*
X155430203Y-111308904D01*
X155432014Y-111315477D01*
X155432014Y-111315480D01*
X155465890Y-111438466D01*
X155479015Y-111486117D01*
X155564743Y-111648714D01*
X155569148Y-111653927D01*
X155569151Y-111653931D01*
X155623925Y-111718747D01*
X155683386Y-111789109D01*
X155688810Y-111793256D01*
X155688811Y-111793257D01*
X155823989Y-111896609D01*
X155823993Y-111896612D01*
X155829410Y-111900753D01*
X155996000Y-111978435D01*
X156067794Y-111994483D01*
X156170342Y-112017406D01*
X156170348Y-112017407D01*
X156175386Y-112018533D01*
X156181003Y-112018847D01*
X156316169Y-112018847D01*
X156452982Y-112003984D01*
X156558416Y-111968502D01*
X156620729Y-111947532D01*
X156620732Y-111947531D01*
X156627194Y-111945356D01*
X156784752Y-111850685D01*
X156918306Y-111724390D01*
X157021624Y-111572362D01*
X157078343Y-111430553D01*
X157122212Y-111374734D01*
X157195332Y-111351347D01*
X157307324Y-111351347D01*
X157313777Y-111349975D01*
X157313781Y-111349975D01*
X157392500Y-111333243D01*
X157477676Y-111315138D01*
X157506401Y-111302349D01*
X157630747Y-111246987D01*
X157630749Y-111246986D01*
X157636777Y-111244302D01*
X157646951Y-111236910D01*
X157772330Y-111145817D01*
X157772332Y-111145815D01*
X157777674Y-111141934D01*
X157894208Y-111012510D01*
X157911126Y-110983207D01*
X157962508Y-110934214D01*
X158032222Y-110920778D01*
X158098133Y-110947164D01*
X158129364Y-110983207D01*
X158146282Y-111012510D01*
X158262816Y-111141934D01*
X158268158Y-111145815D01*
X158268160Y-111145817D01*
X158393539Y-111236910D01*
X158403713Y-111244302D01*
X158409741Y-111246986D01*
X158409743Y-111246987D01*
X158534089Y-111302349D01*
X158562814Y-111315138D01*
X158647990Y-111333243D01*
X158726709Y-111349975D01*
X158726713Y-111349975D01*
X158733166Y-111351347D01*
X158907324Y-111351347D01*
X158913777Y-111349975D01*
X158913781Y-111349975D01*
X158992500Y-111333243D01*
X159077676Y-111315138D01*
X159091678Y-111308904D01*
X159168996Y-111274480D01*
X159239363Y-111265046D01*
X159271494Y-111274480D01*
X159348812Y-111308904D01*
X159362814Y-111315138D01*
X159447990Y-111333243D01*
X159526709Y-111349975D01*
X159526713Y-111349975D01*
X159533166Y-111351347D01*
X159707324Y-111351347D01*
X159713777Y-111349975D01*
X159713781Y-111349975D01*
X159792500Y-111333243D01*
X159877676Y-111315138D01*
X159891678Y-111308904D01*
X159968996Y-111274480D01*
X160039363Y-111265046D01*
X160071494Y-111274480D01*
X160148812Y-111308904D01*
X160162814Y-111315138D01*
X160247990Y-111333243D01*
X160326709Y-111349975D01*
X160326713Y-111349975D01*
X160333166Y-111351347D01*
X160507324Y-111351347D01*
X160513777Y-111349975D01*
X160513781Y-111349975D01*
X160592500Y-111333243D01*
X160677676Y-111315138D01*
X160691678Y-111308904D01*
X160768996Y-111274480D01*
X160839363Y-111265046D01*
X160871494Y-111274480D01*
X160948812Y-111308904D01*
X160962814Y-111315138D01*
X161047990Y-111333243D01*
X161126709Y-111349975D01*
X161126713Y-111349975D01*
X161133166Y-111351347D01*
X161307324Y-111351347D01*
X161313777Y-111349975D01*
X161313781Y-111349975D01*
X161392500Y-111333243D01*
X161477676Y-111315138D01*
X161506401Y-111302349D01*
X161630747Y-111246987D01*
X161630749Y-111246986D01*
X161636777Y-111244302D01*
X161646951Y-111236910D01*
X161772330Y-111145817D01*
X161772332Y-111145815D01*
X161777674Y-111141934D01*
X161894208Y-111012510D01*
X161911126Y-110983207D01*
X161962508Y-110934214D01*
X162032222Y-110920778D01*
X162098133Y-110947164D01*
X162129364Y-110983207D01*
X162146282Y-111012510D01*
X162262816Y-111141934D01*
X162268158Y-111145815D01*
X162268160Y-111145817D01*
X162393539Y-111236910D01*
X162403713Y-111244302D01*
X162409741Y-111246986D01*
X162409743Y-111246987D01*
X162534089Y-111302349D01*
X162562814Y-111315138D01*
X162569269Y-111316510D01*
X162569272Y-111316511D01*
X162668384Y-111337577D01*
X162720611Y-111348678D01*
X162783084Y-111382406D01*
X162815890Y-111438466D01*
X162825924Y-111474894D01*
X162829015Y-111486117D01*
X162832195Y-111492148D01*
X162832196Y-111492151D01*
X162845238Y-111516887D01*
X162914743Y-111648714D01*
X162919148Y-111653927D01*
X162919151Y-111653931D01*
X162973925Y-111718747D01*
X163033386Y-111789109D01*
X163038810Y-111793256D01*
X163038811Y-111793257D01*
X163173989Y-111896609D01*
X163173993Y-111896612D01*
X163179410Y-111900753D01*
X163346000Y-111978435D01*
X163417794Y-111994483D01*
X163520342Y-112017406D01*
X163520348Y-112017407D01*
X163525386Y-112018533D01*
X163531003Y-112018847D01*
X163666169Y-112018847D01*
X163802982Y-112003984D01*
X163908416Y-111968502D01*
X163970729Y-111947532D01*
X163970732Y-111947531D01*
X163977194Y-111945356D01*
X164134752Y-111850685D01*
X164268306Y-111724390D01*
X164371624Y-111572362D01*
X164374156Y-111566031D01*
X164374158Y-111566028D01*
X164437349Y-111408038D01*
X164439886Y-111401695D01*
X164443881Y-111377566D01*
X164453294Y-111320702D01*
X164456580Y-111300849D01*
X164487439Y-111236910D01*
X164529639Y-111206321D01*
X164603536Y-111173420D01*
X164603538Y-111173419D01*
X164609566Y-111170735D01*
X164655967Y-111137023D01*
X164762975Y-111059277D01*
X164762977Y-111059275D01*
X164768319Y-111055394D01*
X164807938Y-111011393D01*
X164895203Y-110914475D01*
X164895204Y-110914474D01*
X164899622Y-110909567D01*
X164984213Y-110763051D01*
X164994433Y-110745350D01*
X164994434Y-110745349D01*
X164997737Y-110739627D01*
X165035112Y-110624598D01*
X165056335Y-110559281D01*
X165056335Y-110559280D01*
X165058375Y-110553002D01*
X165073745Y-110406769D01*
X165073745Y-109458925D01*
X165058375Y-109312692D01*
X165048806Y-109283240D01*
X164999779Y-109132352D01*
X164997737Y-109126067D01*
X164971673Y-109080922D01*
X164942077Y-109029662D01*
X164899622Y-108956127D01*
X164768319Y-108810300D01*
X164728655Y-108781482D01*
X164614908Y-108698840D01*
X164614907Y-108698839D01*
X164609566Y-108694959D01*
X164603538Y-108692275D01*
X164603536Y-108692274D01*
X164436332Y-108617830D01*
X164436331Y-108617830D01*
X164430301Y-108615145D01*
X164334331Y-108594746D01*
X164244817Y-108575719D01*
X164244813Y-108575719D01*
X164238360Y-108574347D01*
X164042130Y-108574347D01*
X164035677Y-108575719D01*
X164035673Y-108575719D01*
X163946159Y-108594746D01*
X163850189Y-108615145D01*
X163844159Y-108617830D01*
X163844158Y-108617830D01*
X163676954Y-108692274D01*
X163676952Y-108692275D01*
X163670924Y-108694959D01*
X163665583Y-108698839D01*
X163665582Y-108698840D01*
X163551836Y-108781482D01*
X163512171Y-108810300D01*
X163380868Y-108956127D01*
X163338413Y-109029662D01*
X163308818Y-109080922D01*
X163282753Y-109126067D01*
X163280711Y-109132352D01*
X163250744Y-109224580D01*
X163210670Y-109283186D01*
X163145274Y-109310823D01*
X163075317Y-109298716D01*
X163037275Y-109269954D01*
X162982096Y-109208671D01*
X162982095Y-109208670D01*
X162977674Y-109203760D01*
X162954187Y-109186695D01*
X162842119Y-109105273D01*
X162842118Y-109105272D01*
X162836777Y-109101392D01*
X162830749Y-109098708D01*
X162830747Y-109098707D01*
X162683707Y-109033241D01*
X162683706Y-109033241D01*
X162677676Y-109030556D01*
X162592500Y-109012451D01*
X162513781Y-108995719D01*
X162513777Y-108995719D01*
X162507324Y-108994347D01*
X162333166Y-108994347D01*
X162326713Y-108995719D01*
X162326709Y-108995719D01*
X162247990Y-109012451D01*
X162162814Y-109030556D01*
X162156785Y-109033241D01*
X162156783Y-109033241D01*
X162071494Y-109071214D01*
X162001127Y-109080648D01*
X161968996Y-109071214D01*
X161883707Y-109033241D01*
X161883705Y-109033241D01*
X161877676Y-109030556D01*
X161792500Y-109012451D01*
X161713781Y-108995719D01*
X161713777Y-108995719D01*
X161707324Y-108994347D01*
X161533166Y-108994347D01*
X161526713Y-108995719D01*
X161526709Y-108995719D01*
X161447990Y-109012451D01*
X161362814Y-109030556D01*
X161356785Y-109033241D01*
X161356783Y-109033241D01*
X161271494Y-109071214D01*
X161201127Y-109080648D01*
X161168996Y-109071214D01*
X161083707Y-109033241D01*
X161083705Y-109033241D01*
X161077676Y-109030556D01*
X160992500Y-109012451D01*
X160913781Y-108995719D01*
X160913777Y-108995719D01*
X160907324Y-108994347D01*
X160733166Y-108994347D01*
X160726713Y-108995719D01*
X160726709Y-108995719D01*
X160647990Y-109012451D01*
X160562814Y-109030556D01*
X160556784Y-109033241D01*
X160556783Y-109033241D01*
X160409743Y-109098707D01*
X160409741Y-109098708D01*
X160403713Y-109101392D01*
X160398372Y-109105272D01*
X160398371Y-109105273D01*
X160286304Y-109186695D01*
X160262816Y-109203760D01*
X160258395Y-109208670D01*
X160258394Y-109208671D01*
X160203215Y-109269954D01*
X160146282Y-109333184D01*
X160142981Y-109338902D01*
X160129364Y-109362487D01*
X160077982Y-109411480D01*
X160008268Y-109424916D01*
X159942357Y-109398530D01*
X159911126Y-109362487D01*
X159897509Y-109338902D01*
X159894208Y-109333184D01*
X159837276Y-109269954D01*
X159782096Y-109208671D01*
X159782095Y-109208670D01*
X159777674Y-109203760D01*
X159754187Y-109186695D01*
X159642119Y-109105273D01*
X159642118Y-109105272D01*
X159636777Y-109101392D01*
X159630749Y-109098708D01*
X159630747Y-109098707D01*
X159483707Y-109033241D01*
X159483706Y-109033241D01*
X159477676Y-109030556D01*
X159392500Y-109012451D01*
X159313781Y-108995719D01*
X159313777Y-108995719D01*
X159307324Y-108994347D01*
X159133166Y-108994347D01*
X159126713Y-108995719D01*
X159126709Y-108995719D01*
X159047990Y-109012451D01*
X158962814Y-109030556D01*
X158956785Y-109033241D01*
X158956783Y-109033241D01*
X158871494Y-109071214D01*
X158801127Y-109080648D01*
X158768996Y-109071214D01*
X158683707Y-109033241D01*
X158683705Y-109033241D01*
X158677676Y-109030556D01*
X158592500Y-109012451D01*
X158513781Y-108995719D01*
X158513777Y-108995719D01*
X158507324Y-108994347D01*
X158333166Y-108994347D01*
X158326713Y-108995719D01*
X158326709Y-108995719D01*
X158197067Y-109023275D01*
X158162814Y-109030556D01*
X158070878Y-109071488D01*
X158000513Y-109080922D01*
X157968383Y-109071488D01*
X157883550Y-109033718D01*
X157871067Y-109029662D01*
X157713729Y-108996220D01*
X157700668Y-108994847D01*
X157539822Y-108994847D01*
X157526761Y-108996220D01*
X157369423Y-109029662D01*
X157356944Y-109033717D01*
X157258204Y-109077679D01*
X157247460Y-109086811D01*
X157249057Y-109092449D01*
X157600047Y-109443439D01*
X157634073Y-109505751D01*
X157630785Y-109571470D01*
X157607601Y-109642823D01*
X157567527Y-109701428D01*
X157502130Y-109729065D01*
X157461572Y-109727133D01*
X157419710Y-109718235D01*
X157313781Y-109695719D01*
X157313777Y-109695719D01*
X157307324Y-109694347D01*
X157184725Y-109694347D01*
X157116604Y-109674345D01*
X157095630Y-109657442D01*
X156895438Y-109457250D01*
X156887816Y-109453088D01*
X156837614Y-109402886D01*
X156822892Y-109355670D01*
X156819065Y-109319257D01*
X156819065Y-109319256D01*
X156818375Y-109312692D01*
X156808806Y-109283240D01*
X156759779Y-109132352D01*
X156757737Y-109126067D01*
X156731673Y-109080922D01*
X156702077Y-109029662D01*
X156659622Y-108956127D01*
X156528319Y-108810300D01*
X156481670Y-108776407D01*
X156438316Y-108720187D01*
X156432240Y-108649450D01*
X156465372Y-108586658D01*
X156504482Y-108559365D01*
X156660722Y-108489803D01*
X156660724Y-108489802D01*
X156666752Y-108487118D01*
X156821253Y-108374866D01*
X156825675Y-108369955D01*
X156944621Y-108237852D01*
X156944622Y-108237851D01*
X156949040Y-108232944D01*
X157044527Y-108067556D01*
X157103542Y-107885928D01*
X157105138Y-107870749D01*
X157122814Y-107702565D01*
X157123504Y-107696000D01*
X157118429Y-107647715D01*
X157104232Y-107512635D01*
X157104232Y-107512633D01*
X157103542Y-107506072D01*
X157044527Y-107324444D01*
X156949040Y-107159056D01*
X156821253Y-107017134D01*
X156684517Y-106917789D01*
X156672094Y-106908763D01*
X156672093Y-106908762D01*
X156666752Y-106904882D01*
X156660724Y-106902198D01*
X156660722Y-106902197D01*
X156498319Y-106829891D01*
X156498318Y-106829891D01*
X156492288Y-106827206D01*
X156305487Y-106787500D01*
X156306034Y-106784927D01*
X156251228Y-106762385D01*
X156210593Y-106704168D01*
X156207883Y-106633223D01*
X156236410Y-106579771D01*
X156295203Y-106514475D01*
X156295204Y-106514474D01*
X156299622Y-106509567D01*
X156397737Y-106339627D01*
X156458375Y-106153002D01*
X156473745Y-106006769D01*
X156473745Y-105058925D01*
X156458375Y-104912692D01*
X156448048Y-104880907D01*
X156399779Y-104732352D01*
X156397737Y-104726067D01*
X156387306Y-104707999D01*
X156315137Y-104583000D01*
X156298399Y-104514005D01*
X156321619Y-104446913D01*
X156377426Y-104403026D01*
X156424256Y-104394000D01*
X163626234Y-104394000D01*
X163694355Y-104414002D01*
X163740848Y-104467658D01*
X163750952Y-104537932D01*
X163735353Y-104583000D01*
X163663185Y-104707999D01*
X163652753Y-104726067D01*
X163650711Y-104732352D01*
X163602443Y-104880907D01*
X163592115Y-104912692D01*
X163576745Y-105058925D01*
X163576745Y-106006769D01*
X163592115Y-106153002D01*
X163652753Y-106339627D01*
X163750868Y-106509567D01*
X163755286Y-106514474D01*
X163755287Y-106514475D01*
X163862208Y-106633223D01*
X163882171Y-106655394D01*
X163887513Y-106659275D01*
X163887515Y-106659277D01*
X164029431Y-106762385D01*
X164040924Y-106770735D01*
X164046952Y-106773419D01*
X164046954Y-106773420D01*
X164173790Y-106829891D01*
X164220189Y-106850549D01*
X164316160Y-106870948D01*
X164405673Y-106889975D01*
X164405677Y-106889975D01*
X164412130Y-106891347D01*
X164608360Y-106891347D01*
X164614813Y-106889975D01*
X164614817Y-106889975D01*
X164704330Y-106870948D01*
X164800301Y-106850549D01*
X164846700Y-106829891D01*
X164973536Y-106773420D01*
X164973538Y-106773419D01*
X164979566Y-106770735D01*
X164991059Y-106762385D01*
X165132975Y-106659277D01*
X165132977Y-106659275D01*
X165138319Y-106655394D01*
X165158282Y-106633223D01*
X165265203Y-106514475D01*
X165265204Y-106514474D01*
X165269622Y-106509567D01*
X165367737Y-106339627D01*
X165428375Y-106153002D01*
X165443745Y-106006769D01*
X165443745Y-105058925D01*
X165428375Y-104912692D01*
X165418048Y-104880907D01*
X165369779Y-104732352D01*
X165367737Y-104726067D01*
X165357306Y-104707999D01*
X165285137Y-104583000D01*
X165268399Y-104514005D01*
X165291619Y-104446913D01*
X165347426Y-104403026D01*
X165394256Y-104394000D01*
X166740671Y-104394000D01*
X166792810Y-104405294D01*
X166884372Y-104446913D01*
X168278909Y-105080794D01*
X168332647Y-105127192D01*
X168352770Y-105195277D01*
X168332888Y-105263433D01*
X168279315Y-105310021D01*
X168226770Y-105321500D01*
X166741866Y-105321500D01*
X166679684Y-105328255D01*
X166543295Y-105379385D01*
X166426739Y-105466739D01*
X166339385Y-105583295D01*
X166288255Y-105719684D01*
X166281500Y-105781866D01*
X166281500Y-107578134D01*
X166288255Y-107640316D01*
X166339385Y-107776705D01*
X166426739Y-107893261D01*
X166543295Y-107980615D01*
X166551704Y-107983767D01*
X166551705Y-107983768D01*
X166660960Y-108024726D01*
X166717725Y-108067367D01*
X166742425Y-108133929D01*
X166727218Y-108203278D01*
X166707825Y-108229759D01*
X166584590Y-108358717D01*
X166578104Y-108366727D01*
X166458098Y-108542649D01*
X166453000Y-108551623D01*
X166363338Y-108744783D01*
X166359775Y-108754470D01*
X166304389Y-108954183D01*
X166305912Y-108962607D01*
X166318292Y-108966000D01*
X167768000Y-108966000D01*
X167836121Y-108986002D01*
X167882614Y-109039658D01*
X167894000Y-109092000D01*
X167894000Y-109348000D01*
X167873998Y-109416121D01*
X167820342Y-109462614D01*
X167768000Y-109474000D01*
X166323225Y-109474000D01*
X166309694Y-109477973D01*
X166308257Y-109487966D01*
X166338565Y-109622446D01*
X166341645Y-109632275D01*
X166421770Y-109829603D01*
X166426413Y-109838794D01*
X166537694Y-110020388D01*
X166543777Y-110028699D01*
X166683213Y-110189667D01*
X166690580Y-110196883D01*
X166854434Y-110332916D01*
X166862881Y-110338831D01*
X166931969Y-110379203D01*
X166980693Y-110430842D01*
X166993764Y-110500625D01*
X166967033Y-110566396D01*
X166926584Y-110599752D01*
X166913607Y-110606507D01*
X166909474Y-110609610D01*
X166909471Y-110609612D01*
X166739100Y-110737530D01*
X166734965Y-110740635D01*
X166580629Y-110902138D01*
X166454743Y-111086680D01*
X166439003Y-111120590D01*
X166367570Y-111274480D01*
X166360688Y-111289305D01*
X166300989Y-111504570D01*
X166277251Y-111726695D01*
X166277548Y-111731848D01*
X166277548Y-111731851D01*
X166282879Y-111824302D01*
X166290110Y-111949715D01*
X166291247Y-111954761D01*
X166291248Y-111954767D01*
X166305619Y-112018533D01*
X166339222Y-112167639D01*
X166376498Y-112259440D01*
X166416322Y-112357514D01*
X166423266Y-112374616D01*
X166462745Y-112439040D01*
X166506675Y-112510727D01*
X166539987Y-112565088D01*
X166686250Y-112733938D01*
X166822356Y-112846935D01*
X166853518Y-112872806D01*
X166858126Y-112876632D01*
X166928595Y-112917811D01*
X166931445Y-112919476D01*
X166980169Y-112971114D01*
X166993240Y-113040897D01*
X166966509Y-113106669D01*
X166926055Y-113140027D01*
X166913607Y-113146507D01*
X166909474Y-113149610D01*
X166909471Y-113149612D01*
X166798498Y-113232933D01*
X166734965Y-113280635D01*
X166731393Y-113284373D01*
X166594097Y-113428045D01*
X166580629Y-113442138D01*
X166454743Y-113626680D01*
X166413122Y-113716345D01*
X166394798Y-113755822D01*
X166360688Y-113829305D01*
X166300989Y-114044570D01*
X166277251Y-114266695D01*
X166277548Y-114271848D01*
X166277548Y-114271851D01*
X166285449Y-114408872D01*
X166290110Y-114489715D01*
X166291247Y-114494761D01*
X166291248Y-114494767D01*
X166297430Y-114522197D01*
X166339222Y-114707639D01*
X166377461Y-114801811D01*
X166419720Y-114905882D01*
X166423266Y-114914616D01*
X166539987Y-115105088D01*
X166686250Y-115273938D01*
X166858126Y-115416632D01*
X167051000Y-115529338D01*
X167259692Y-115609030D01*
X167264760Y-115610061D01*
X167264763Y-115610062D01*
X167372017Y-115631883D01*
X167478597Y-115653567D01*
X167483772Y-115653757D01*
X167483774Y-115653757D01*
X167696673Y-115661564D01*
X167696677Y-115661564D01*
X167701837Y-115661753D01*
X167706957Y-115661097D01*
X167706959Y-115661097D01*
X167918288Y-115634025D01*
X167918289Y-115634025D01*
X167923416Y-115633368D01*
X167928366Y-115631883D01*
X168132429Y-115570661D01*
X168132434Y-115570659D01*
X168137384Y-115569174D01*
X168337994Y-115470896D01*
X168519860Y-115341173D01*
X168678096Y-115183489D01*
X168690826Y-115165774D01*
X168805435Y-115006277D01*
X168808453Y-115002077D01*
X168839766Y-114938721D01*
X168905136Y-114806453D01*
X168905137Y-114806451D01*
X168907430Y-114801811D01*
X168917442Y-114768858D01*
X168956383Y-114709494D01*
X169021237Y-114680607D01*
X169091413Y-114691369D01*
X169144631Y-114738362D01*
X169164000Y-114805487D01*
X169164000Y-115394393D01*
X169146045Y-115459218D01*
X168686875Y-116224500D01*
X168659079Y-116270827D01*
X168606880Y-116318949D01*
X168551035Y-116332000D01*
X165635016Y-116332000D01*
X165566895Y-116311998D01*
X165520402Y-116258342D01*
X165510298Y-116188068D01*
X165539792Y-116123488D01*
X165560955Y-116104064D01*
X165705909Y-115998749D01*
X165705911Y-115998747D01*
X165711253Y-115994866D01*
X165839040Y-115852944D01*
X165927389Y-115699920D01*
X165931223Y-115693279D01*
X165931224Y-115693278D01*
X165934527Y-115687556D01*
X165993542Y-115505928D01*
X166013504Y-115316000D01*
X165993542Y-115126072D01*
X165934527Y-114944444D01*
X165919849Y-114919020D01*
X165866625Y-114826834D01*
X165839040Y-114779056D01*
X165760087Y-114691369D01*
X165715675Y-114642045D01*
X165715674Y-114642044D01*
X165711253Y-114637134D01*
X165556752Y-114524882D01*
X165550724Y-114522198D01*
X165550722Y-114522197D01*
X165388319Y-114449891D01*
X165388318Y-114449891D01*
X165382288Y-114447206D01*
X165288887Y-114427353D01*
X165201944Y-114408872D01*
X165201939Y-114408872D01*
X165195487Y-114407500D01*
X165004513Y-114407500D01*
X164998061Y-114408872D01*
X164998056Y-114408872D01*
X164911113Y-114427353D01*
X164817712Y-114447206D01*
X164811682Y-114449891D01*
X164811681Y-114449891D01*
X164649278Y-114522197D01*
X164649276Y-114522198D01*
X164643248Y-114524882D01*
X164488747Y-114637134D01*
X164484326Y-114642044D01*
X164484325Y-114642045D01*
X164439914Y-114691369D01*
X164360960Y-114779056D01*
X164333375Y-114826834D01*
X164280152Y-114919020D01*
X164265473Y-114944444D01*
X164206458Y-115126072D01*
X164186496Y-115316000D01*
X164206458Y-115505928D01*
X164265473Y-115687556D01*
X164268776Y-115693278D01*
X164268777Y-115693279D01*
X164272611Y-115699920D01*
X164360960Y-115852944D01*
X164488747Y-115994866D01*
X164494089Y-115998747D01*
X164494091Y-115998749D01*
X164639045Y-116104064D01*
X164682399Y-116160286D01*
X164688474Y-116231022D01*
X164655343Y-116293814D01*
X164593523Y-116328726D01*
X164564984Y-116332000D01*
X160301016Y-116332000D01*
X160232895Y-116311998D01*
X160186402Y-116258342D01*
X160176298Y-116188068D01*
X160205792Y-116123488D01*
X160226955Y-116104064D01*
X160371909Y-115998749D01*
X160371911Y-115998747D01*
X160377253Y-115994866D01*
X160505040Y-115852944D01*
X160593389Y-115699920D01*
X160597223Y-115693279D01*
X160597224Y-115693278D01*
X160600527Y-115687556D01*
X160659542Y-115505928D01*
X160679504Y-115316000D01*
X160659542Y-115126072D01*
X160600527Y-114944444D01*
X160585849Y-114919020D01*
X160532625Y-114826834D01*
X160505040Y-114779056D01*
X160426087Y-114691369D01*
X160381675Y-114642045D01*
X160381674Y-114642044D01*
X160377253Y-114637134D01*
X160222752Y-114524882D01*
X160216724Y-114522198D01*
X160216722Y-114522197D01*
X160054319Y-114449891D01*
X160054318Y-114449891D01*
X160048288Y-114447206D01*
X159954887Y-114427353D01*
X159867944Y-114408872D01*
X159867939Y-114408872D01*
X159861487Y-114407500D01*
X159670513Y-114407500D01*
X159664061Y-114408872D01*
X159664056Y-114408872D01*
X159577113Y-114427353D01*
X159483712Y-114447206D01*
X159477682Y-114449891D01*
X159477681Y-114449891D01*
X159315278Y-114522197D01*
X159315276Y-114522198D01*
X159309248Y-114524882D01*
X159154747Y-114637134D01*
X159150326Y-114642044D01*
X159150325Y-114642045D01*
X159105914Y-114691369D01*
X159026960Y-114779056D01*
X158999375Y-114826834D01*
X158946152Y-114919020D01*
X158931473Y-114944444D01*
X158872458Y-115126072D01*
X158852496Y-115316000D01*
X158872458Y-115505928D01*
X158931473Y-115687556D01*
X158934776Y-115693278D01*
X158934777Y-115693279D01*
X158938611Y-115699920D01*
X159026960Y-115852944D01*
X159154747Y-115994866D01*
X159160089Y-115998747D01*
X159160091Y-115998749D01*
X159305045Y-116104064D01*
X159348399Y-116160286D01*
X159354474Y-116231022D01*
X159321343Y-116293814D01*
X159259523Y-116328726D01*
X159230984Y-116332000D01*
X155434266Y-116332000D01*
X155366145Y-116311998D01*
X155319652Y-116258342D01*
X155309548Y-116188068D01*
X155325147Y-116143000D01*
X155364823Y-116074279D01*
X155364824Y-116074278D01*
X155368127Y-116068556D01*
X155427142Y-115886928D01*
X155436270Y-115800085D01*
X155446414Y-115703565D01*
X155447104Y-115697000D01*
X155443380Y-115661564D01*
X155427832Y-115513635D01*
X155427832Y-115513633D01*
X155427142Y-115507072D01*
X155368127Y-115325444D01*
X155362675Y-115316000D01*
X155275941Y-115165774D01*
X155272640Y-115160056D01*
X155144853Y-115018134D01*
X155008435Y-114919020D01*
X154995694Y-114909763D01*
X154995693Y-114909762D01*
X154990352Y-114905882D01*
X154984324Y-114903198D01*
X154984322Y-114903197D01*
X154821919Y-114830891D01*
X154821918Y-114830891D01*
X154815888Y-114828206D01*
X154709004Y-114805487D01*
X154635544Y-114789872D01*
X154635539Y-114789872D01*
X154629087Y-114788500D01*
X154438113Y-114788500D01*
X154431661Y-114789872D01*
X154431656Y-114789872D01*
X154358196Y-114805487D01*
X154251312Y-114828206D01*
X154245282Y-114830891D01*
X154245281Y-114830891D01*
X154082878Y-114903197D01*
X154082876Y-114903198D01*
X154076848Y-114905882D01*
X154071507Y-114909762D01*
X154071506Y-114909763D01*
X154058765Y-114919020D01*
X153922347Y-115018134D01*
X153794560Y-115160056D01*
X153791259Y-115165774D01*
X153704526Y-115316000D01*
X153699073Y-115325444D01*
X153640058Y-115507072D01*
X153639368Y-115513633D01*
X153639368Y-115513635D01*
X153623820Y-115661564D01*
X153620096Y-115697000D01*
X153620786Y-115703565D01*
X153630931Y-115800085D01*
X153640058Y-115886928D01*
X153699073Y-116068556D01*
X153702376Y-116074278D01*
X153702377Y-116074279D01*
X153742053Y-116143000D01*
X153758791Y-116211996D01*
X153735570Y-116279087D01*
X153679763Y-116322974D01*
X153632934Y-116332000D01*
X150793402Y-116332000D01*
X150729914Y-116314836D01*
X149692423Y-115709633D01*
X146551101Y-113877196D01*
X146502338Y-113825595D01*
X146489214Y-113755822D01*
X146515896Y-113690029D01*
X146576909Y-113648126D01*
X146727561Y-113600915D01*
X146896982Y-113507003D01*
X146940844Y-113469409D01*
X147039207Y-113385102D01*
X147039209Y-113385100D01*
X147044059Y-113380943D01*
X147162784Y-113227884D01*
X147248307Y-113054077D01*
X147249914Y-113047907D01*
X147249916Y-113047902D01*
X147295525Y-112872806D01*
X147295525Y-112872803D01*
X147297135Y-112866624D01*
X147307273Y-112673182D01*
X147278307Y-112481651D01*
X147272651Y-112466277D01*
X147237164Y-112369829D01*
X147211419Y-112299858D01*
X147208061Y-112294442D01*
X147208059Y-112294438D01*
X147112707Y-112140650D01*
X147112704Y-112140646D01*
X147109344Y-112135227D01*
X147022072Y-112042939D01*
X146980638Y-111999124D01*
X146980637Y-111999123D01*
X146976249Y-111994483D01*
X146869782Y-111919934D01*
X147736500Y-111919934D01*
X147736823Y-111923113D01*
X147746510Y-112018478D01*
X147751619Y-112068780D01*
X147811369Y-112259440D01*
X147908235Y-112434191D01*
X147912391Y-112439040D01*
X148020427Y-112565088D01*
X148038261Y-112585896D01*
X148043298Y-112589803D01*
X148043300Y-112589805D01*
X148191093Y-112704445D01*
X148191096Y-112704447D01*
X148196137Y-112708357D01*
X148201863Y-112711175D01*
X148201867Y-112711177D01*
X148369682Y-112793752D01*
X148375411Y-112796571D01*
X148464906Y-112819883D01*
X148562580Y-112845325D01*
X148562583Y-112845325D01*
X148568762Y-112846935D01*
X148662256Y-112851835D01*
X148761911Y-112857058D01*
X148761915Y-112857058D01*
X148768292Y-112857392D01*
X148965848Y-112827514D01*
X149047346Y-112797529D01*
X149147371Y-112760727D01*
X149147372Y-112760727D01*
X149153361Y-112758523D01*
X149323172Y-112653235D01*
X149329621Y-112647137D01*
X149463710Y-112520335D01*
X149468344Y-112515953D01*
X149582946Y-112352284D01*
X149662298Y-112168914D01*
X149703156Y-111973334D01*
X149703500Y-111966771D01*
X149703500Y-111520066D01*
X149697595Y-111461929D01*
X149689026Y-111377566D01*
X149689025Y-111377562D01*
X149688381Y-111371220D01*
X149628631Y-111180560D01*
X149619852Y-111164721D01*
X149534860Y-111011393D01*
X149531765Y-111005809D01*
X149465313Y-110928277D01*
X149405891Y-110858948D01*
X149405890Y-110858947D01*
X149401739Y-110854104D01*
X149396700Y-110850195D01*
X149248907Y-110735555D01*
X149248904Y-110735553D01*
X149243863Y-110731643D01*
X149238137Y-110728825D01*
X149238133Y-110728823D01*
X149070318Y-110646248D01*
X149064589Y-110643429D01*
X148945797Y-110612486D01*
X148877420Y-110594675D01*
X148877417Y-110594675D01*
X148871238Y-110593065D01*
X148777744Y-110588165D01*
X148678089Y-110582942D01*
X148678085Y-110582942D01*
X148671708Y-110582608D01*
X148474152Y-110612486D01*
X148468165Y-110614689D01*
X148468164Y-110614689D01*
X148394424Y-110641820D01*
X148286639Y-110681477D01*
X148191228Y-110740635D01*
X148155075Y-110763051D01*
X148116828Y-110786765D01*
X147971656Y-110924047D01*
X147857054Y-111087716D01*
X147777702Y-111271086D01*
X147736844Y-111466666D01*
X147736500Y-111473229D01*
X147736500Y-111919934D01*
X146869782Y-111919934D01*
X146817573Y-111883377D01*
X146639796Y-111806446D01*
X146556810Y-111789109D01*
X146454927Y-111767824D01*
X146454923Y-111767824D01*
X146450182Y-111766833D01*
X146443828Y-111766500D01*
X145641592Y-111766500D01*
X145595839Y-111771147D01*
X145503632Y-111780513D01*
X145503630Y-111780513D01*
X145497284Y-111781158D01*
X145312439Y-111839085D01*
X145306850Y-111842183D01*
X145221086Y-111889723D01*
X145151809Y-111905254D01*
X145085133Y-111880867D01*
X145042226Y-111824302D01*
X145034000Y-111779521D01*
X145034000Y-106919934D01*
X147736500Y-106919934D01*
X147736823Y-106923113D01*
X147745979Y-107013251D01*
X147751619Y-107068780D01*
X147811369Y-107259440D01*
X147908235Y-107434191D01*
X147912391Y-107439040D01*
X148028680Y-107574717D01*
X148038261Y-107585896D01*
X148043298Y-107589803D01*
X148043300Y-107589805D01*
X148191093Y-107704445D01*
X148191096Y-107704447D01*
X148196137Y-107708357D01*
X148201863Y-107711175D01*
X148201867Y-107711177D01*
X148335038Y-107776705D01*
X148375411Y-107796571D01*
X148464906Y-107819883D01*
X148562580Y-107845325D01*
X148562583Y-107845325D01*
X148568762Y-107846935D01*
X148662256Y-107851835D01*
X148761911Y-107857058D01*
X148761915Y-107857058D01*
X148768292Y-107857392D01*
X148965848Y-107827514D01*
X149084413Y-107783891D01*
X149147371Y-107760727D01*
X149147372Y-107760727D01*
X149153361Y-107758523D01*
X149323172Y-107653235D01*
X149327806Y-107648853D01*
X149327811Y-107648849D01*
X149378268Y-107601134D01*
X149441506Y-107568862D01*
X149512152Y-107575902D01*
X149567778Y-107620019D01*
X149573960Y-107629682D01*
X149625658Y-107719226D01*
X149625661Y-107719231D01*
X149628960Y-107724944D01*
X149633378Y-107729851D01*
X149633379Y-107729852D01*
X149748450Y-107857651D01*
X149756747Y-107866866D01*
X149911248Y-107979118D01*
X149917276Y-107981802D01*
X149917278Y-107981803D01*
X150079681Y-108054109D01*
X150085712Y-108056794D01*
X150179113Y-108076647D01*
X150266056Y-108095128D01*
X150266061Y-108095128D01*
X150272513Y-108096500D01*
X150463487Y-108096500D01*
X150469939Y-108095128D01*
X150469944Y-108095128D01*
X150556887Y-108076647D01*
X150650288Y-108056794D01*
X150656319Y-108054109D01*
X150818722Y-107981803D01*
X150818724Y-107981802D01*
X150824752Y-107979118D01*
X150830105Y-107975229D01*
X150973909Y-107870749D01*
X150973911Y-107870747D01*
X150979253Y-107866866D01*
X150983675Y-107861955D01*
X150988455Y-107857651D01*
X151052463Y-107826933D01*
X151122916Y-107835696D01*
X151173592Y-107875719D01*
X151186739Y-107893261D01*
X151303295Y-107980615D01*
X151311704Y-107983767D01*
X151311705Y-107983768D01*
X151420451Y-108024535D01*
X151477216Y-108067176D01*
X151501916Y-108133738D01*
X151486709Y-108203087D01*
X151467316Y-108229568D01*
X151340629Y-108362138D01*
X151337715Y-108366410D01*
X151337714Y-108366411D01*
X151329299Y-108378747D01*
X151214743Y-108546680D01*
X151167715Y-108647993D01*
X151137373Y-108713361D01*
X151120688Y-108749305D01*
X151060989Y-108964570D01*
X151037251Y-109186695D01*
X151037548Y-109191848D01*
X151037548Y-109191851D01*
X151043011Y-109286590D01*
X151050110Y-109409715D01*
X151051247Y-109414761D01*
X151051248Y-109414767D01*
X151062031Y-109462614D01*
X151099222Y-109627639D01*
X151183266Y-109834616D01*
X151299987Y-110025088D01*
X151446250Y-110193938D01*
X151618126Y-110336632D01*
X151688595Y-110377811D01*
X151691445Y-110379476D01*
X151740169Y-110431114D01*
X151753240Y-110500897D01*
X151726509Y-110566669D01*
X151686055Y-110600027D01*
X151673607Y-110606507D01*
X151669474Y-110609610D01*
X151669471Y-110609612D01*
X151499100Y-110737530D01*
X151494965Y-110740635D01*
X151340629Y-110902138D01*
X151214743Y-111086680D01*
X151199003Y-111120590D01*
X151127570Y-111274480D01*
X151120688Y-111289305D01*
X151060989Y-111504570D01*
X151037251Y-111726695D01*
X151037548Y-111731848D01*
X151037548Y-111731851D01*
X151042879Y-111824302D01*
X151050110Y-111949715D01*
X151051247Y-111954761D01*
X151051248Y-111954767D01*
X151065619Y-112018533D01*
X151099222Y-112167639D01*
X151136498Y-112259440D01*
X151176322Y-112357514D01*
X151183266Y-112374616D01*
X151222745Y-112439040D01*
X151266675Y-112510727D01*
X151299987Y-112565088D01*
X151446250Y-112733938D01*
X151582356Y-112846935D01*
X151613518Y-112872806D01*
X151618126Y-112876632D01*
X151688595Y-112917811D01*
X151691445Y-112919476D01*
X151740169Y-112971114D01*
X151753240Y-113040897D01*
X151726509Y-113106669D01*
X151686055Y-113140027D01*
X151673607Y-113146507D01*
X151669474Y-113149610D01*
X151669471Y-113149612D01*
X151558498Y-113232933D01*
X151494965Y-113280635D01*
X151491393Y-113284373D01*
X151354097Y-113428045D01*
X151340629Y-113442138D01*
X151214743Y-113626680D01*
X151173122Y-113716345D01*
X151154798Y-113755822D01*
X151120688Y-113829305D01*
X151060989Y-114044570D01*
X151037251Y-114266695D01*
X151037548Y-114271848D01*
X151037548Y-114271851D01*
X151045449Y-114408872D01*
X151050110Y-114489715D01*
X151051247Y-114494761D01*
X151051248Y-114494767D01*
X151057430Y-114522197D01*
X151099222Y-114707639D01*
X151137461Y-114801811D01*
X151179720Y-114905882D01*
X151183266Y-114914616D01*
X151299987Y-115105088D01*
X151446250Y-115273938D01*
X151618126Y-115416632D01*
X151811000Y-115529338D01*
X152019692Y-115609030D01*
X152024760Y-115610061D01*
X152024763Y-115610062D01*
X152132017Y-115631883D01*
X152238597Y-115653567D01*
X152243772Y-115653757D01*
X152243774Y-115653757D01*
X152456673Y-115661564D01*
X152456677Y-115661564D01*
X152461837Y-115661753D01*
X152466957Y-115661097D01*
X152466959Y-115661097D01*
X152678288Y-115634025D01*
X152678289Y-115634025D01*
X152683416Y-115633368D01*
X152688366Y-115631883D01*
X152892429Y-115570661D01*
X152892434Y-115570659D01*
X152897384Y-115569174D01*
X153097994Y-115470896D01*
X153279860Y-115341173D01*
X153438096Y-115183489D01*
X153450826Y-115165774D01*
X153565435Y-115006277D01*
X153568453Y-115002077D01*
X153599766Y-114938721D01*
X153665136Y-114806453D01*
X153665137Y-114806451D01*
X153667430Y-114801811D01*
X153732370Y-114588069D01*
X153761529Y-114366590D01*
X153763156Y-114300000D01*
X153744852Y-114077361D01*
X153690431Y-113860702D01*
X153601354Y-113655840D01*
X153505067Y-113507003D01*
X153482822Y-113472617D01*
X153482820Y-113472614D01*
X153480014Y-113468277D01*
X153329670Y-113303051D01*
X153325619Y-113299852D01*
X153325615Y-113299848D01*
X153158414Y-113167800D01*
X153158410Y-113167798D01*
X153154359Y-113164598D01*
X153113053Y-113141796D01*
X153063084Y-113091364D01*
X153048312Y-113021921D01*
X153073428Y-112955516D01*
X153100780Y-112928909D01*
X153144603Y-112897650D01*
X153279860Y-112801173D01*
X153438096Y-112643489D01*
X153497594Y-112560689D01*
X153565435Y-112466277D01*
X153568453Y-112462077D01*
X153625612Y-112346425D01*
X153665136Y-112266453D01*
X153665137Y-112266451D01*
X153667430Y-112261811D01*
X153724228Y-112074867D01*
X153730865Y-112053023D01*
X153730865Y-112053021D01*
X153732370Y-112048069D01*
X153761529Y-111826590D01*
X153762053Y-111805141D01*
X153763074Y-111763365D01*
X153763074Y-111763361D01*
X153763156Y-111760000D01*
X153744852Y-111537361D01*
X153690431Y-111320702D01*
X153601354Y-111115840D01*
X153480014Y-110928277D01*
X153329670Y-110763051D01*
X153325619Y-110759852D01*
X153325615Y-110759848D01*
X153158414Y-110627800D01*
X153158410Y-110627798D01*
X153154359Y-110624598D01*
X153113053Y-110601796D01*
X153063084Y-110551364D01*
X153048312Y-110481921D01*
X153073428Y-110415516D01*
X153100780Y-110388909D01*
X153144603Y-110357650D01*
X153279860Y-110261173D01*
X153438096Y-110103489D01*
X153497594Y-110020689D01*
X153565435Y-109926277D01*
X153568453Y-109922077D01*
X153667430Y-109721811D01*
X153701508Y-109609649D01*
X153730865Y-109513023D01*
X153730865Y-109513021D01*
X153732370Y-109508069D01*
X153761529Y-109286590D01*
X153761612Y-109283186D01*
X153763074Y-109223365D01*
X153763074Y-109223361D01*
X153763156Y-109220000D01*
X153744852Y-108997361D01*
X153690431Y-108780702D01*
X153601354Y-108575840D01*
X153541446Y-108483237D01*
X153482822Y-108392617D01*
X153482820Y-108392614D01*
X153480014Y-108388277D01*
X153476532Y-108384450D01*
X153332798Y-108226488D01*
X153301746Y-108162642D01*
X153310141Y-108092143D01*
X153355317Y-108037375D01*
X153381761Y-108023706D01*
X153488297Y-107983767D01*
X153496705Y-107980615D01*
X153613261Y-107893261D01*
X153700615Y-107776705D01*
X153751745Y-107640316D01*
X153758500Y-107578134D01*
X153758500Y-105781866D01*
X153751745Y-105719684D01*
X153700615Y-105583295D01*
X153613261Y-105466739D01*
X153496705Y-105379385D01*
X153360316Y-105328255D01*
X153298134Y-105321500D01*
X151501866Y-105321500D01*
X151439684Y-105328255D01*
X151303295Y-105379385D01*
X151186739Y-105466739D01*
X151099385Y-105583295D01*
X151048255Y-105719684D01*
X151041500Y-105781866D01*
X151041500Y-106307070D01*
X151021498Y-106375191D01*
X150967842Y-106421684D01*
X150897568Y-106431788D01*
X150841441Y-106409007D01*
X150824752Y-106396882D01*
X150818724Y-106394198D01*
X150818722Y-106394197D01*
X150656319Y-106321891D01*
X150656318Y-106321891D01*
X150650288Y-106319206D01*
X150556888Y-106299353D01*
X150469944Y-106280872D01*
X150469939Y-106280872D01*
X150463487Y-106279500D01*
X150272513Y-106279500D01*
X150266061Y-106280872D01*
X150266056Y-106280872D01*
X150179112Y-106299353D01*
X150085712Y-106319206D01*
X150079682Y-106321891D01*
X150079681Y-106321891D01*
X149917278Y-106394197D01*
X149917276Y-106394198D01*
X149911248Y-106396882D01*
X149878122Y-106420950D01*
X149811256Y-106444807D01*
X149742104Y-106428727D01*
X149692624Y-106377814D01*
X149683828Y-106356692D01*
X149630541Y-106186654D01*
X149630540Y-106186652D01*
X149628631Y-106180560D01*
X149613356Y-106153002D01*
X149558520Y-106054077D01*
X149531765Y-106005809D01*
X149457931Y-105919665D01*
X149405891Y-105858948D01*
X149405890Y-105858947D01*
X149401739Y-105854104D01*
X149396700Y-105850195D01*
X149248907Y-105735555D01*
X149248904Y-105735553D01*
X149243863Y-105731643D01*
X149238137Y-105728825D01*
X149238133Y-105728823D01*
X149070318Y-105646248D01*
X149064589Y-105643429D01*
X148945797Y-105612486D01*
X148877420Y-105594675D01*
X148877417Y-105594675D01*
X148871238Y-105593065D01*
X148777744Y-105588165D01*
X148678089Y-105582942D01*
X148678085Y-105582942D01*
X148671708Y-105582608D01*
X148474152Y-105612486D01*
X148286639Y-105681477D01*
X148116828Y-105786765D01*
X147971656Y-105924047D01*
X147857054Y-106087716D01*
X147777702Y-106271086D01*
X147736844Y-106466666D01*
X147736500Y-106473229D01*
X147736500Y-106919934D01*
X145034000Y-106919934D01*
X145034000Y-106665338D01*
X145054002Y-106597217D01*
X145107658Y-106550724D01*
X145177932Y-106540620D01*
X145219803Y-106554786D01*
X145222427Y-106556623D01*
X145400204Y-106633554D01*
X145406452Y-106634859D01*
X145406451Y-106634859D01*
X145585073Y-106672176D01*
X145585077Y-106672176D01*
X145589818Y-106673167D01*
X145596172Y-106673500D01*
X146398408Y-106673500D01*
X146444161Y-106668853D01*
X146536368Y-106659487D01*
X146536370Y-106659487D01*
X146542716Y-106658842D01*
X146727561Y-106600915D01*
X146896982Y-106507003D01*
X146938333Y-106471561D01*
X147039207Y-106385102D01*
X147039209Y-106385100D01*
X147044059Y-106380943D01*
X147091947Y-106319206D01*
X147158868Y-106232933D01*
X147158870Y-106232930D01*
X147162784Y-106227884D01*
X147248307Y-106054077D01*
X147249914Y-106047907D01*
X147249916Y-106047902D01*
X147295525Y-105872806D01*
X147295525Y-105872803D01*
X147297135Y-105866624D01*
X147306662Y-105684840D01*
X147306939Y-105679563D01*
X147306939Y-105679559D01*
X147307273Y-105673182D01*
X147278307Y-105481651D01*
X147272821Y-105466739D01*
X147221553Y-105327402D01*
X147211419Y-105299858D01*
X147208061Y-105294442D01*
X147208059Y-105294438D01*
X147112707Y-105140650D01*
X147112704Y-105140646D01*
X147109344Y-105135227D01*
X147037189Y-105058925D01*
X146980638Y-104999124D01*
X146980637Y-104999123D01*
X146976249Y-104994483D01*
X146817573Y-104883377D01*
X146818892Y-104881493D01*
X146776476Y-104838226D01*
X146762075Y-104768705D01*
X146787545Y-104702434D01*
X146835519Y-104664236D01*
X147313629Y-104446913D01*
X147405191Y-104405294D01*
X147457330Y-104394000D01*
X154656234Y-104394000D01*
X154724355Y-104414002D01*
G37*
%TD.AperFunction*%
%TD*%
M02*
