%TF.GenerationSoftware,KiCad,Pcbnew,(6.0.0)*%
%TF.CreationDate,2022-07-25T11:20:30-04:00*%
%TF.ProjectId,dual_model_u,6475616c-5f6d-46f6-9465-6c5f752e6b69,rev?*%
%TF.SameCoordinates,Original*%
%TF.FileFunction,Copper,L4,Bot*%
%TF.FilePolarity,Positive*%
%FSLAX46Y46*%
G04 Gerber Fmt 4.6, Leading zero omitted, Abs format (unit mm)*
G04 Created by KiCad (PCBNEW (6.0.0)) date 2022-07-25 11:20:30*
%MOMM*%
%LPD*%
G01*
G04 APERTURE LIST*
%TA.AperFunction,ComponentPad*%
%ADD10C,0.640000*%
%TD*%
%TA.AperFunction,ComponentPad*%
%ADD11O,0.850000X1.700000*%
%TD*%
%TA.AperFunction,ComponentPad*%
%ADD12O,0.950000X1.250000*%
%TD*%
%TA.AperFunction,ComponentPad*%
%ADD13O,1.550000X0.890000*%
%TD*%
%TA.AperFunction,ComponentPad*%
%ADD14R,1.700000X1.700000*%
%TD*%
%TA.AperFunction,ComponentPad*%
%ADD15O,1.700000X1.700000*%
%TD*%
%TA.AperFunction,ViaPad*%
%ADD16C,0.800000*%
%TD*%
%TA.AperFunction,Conductor*%
%ADD17C,0.300000*%
%TD*%
G04 APERTURE END LIST*
D10*
%TO.P,J1,B1,GND*%
%TO.N,GND*%
X157220245Y-110522847D03*
%TO.P,J1,B2,TX2+*%
%TO.N,+3V3*%
X157620245Y-109822847D03*
%TO.P,J1,B3,TX2-*%
%TO.N,TX-*%
X158420245Y-109822847D03*
%TO.P,J1,B4,VBUS*%
%TO.N,VBUS*%
X158820245Y-110522847D03*
%TO.P,J1,B5,CC2*%
%TO.N,Net-(J1-PadB5)*%
X159220245Y-109822847D03*
%TO.P,J1,B6,D+*%
%TO.N,D+*%
X159620245Y-110522847D03*
%TO.P,J1,B7,D-*%
%TO.N,D-*%
X160420245Y-110522847D03*
%TO.P,J1,B8,SBU2*%
%TO.N,unconnected-(J1-PadB8)*%
X160820245Y-109822847D03*
%TO.P,J1,B9,VBUS*%
%TO.N,VBUS*%
X161220245Y-110522847D03*
%TO.P,J1,B10,RX1-*%
%TO.N,RX-*%
X161620245Y-109822847D03*
%TO.P,J1,B11,RX1+*%
%TO.N,DATA*%
X162420245Y-109822847D03*
%TO.P,J1,B12,GND*%
%TO.N,GND*%
X162820245Y-110522847D03*
D11*
%TO.P,J1,S1,SHIELD*%
X155900245Y-109932847D03*
X164140245Y-109932847D03*
X155540245Y-105532847D03*
X164510245Y-105532847D03*
%TD*%
D12*
%TO.P,J2,6,Shield*%
%TO.N,GND*%
X148720000Y-106720000D03*
X148720000Y-111720000D03*
D13*
X146020000Y-112720000D03*
X146020000Y-105720000D03*
%TD*%
D14*
%TO.P,J4,1,Pin_1*%
%TO.N,DATA*%
X152400000Y-106680000D03*
D15*
%TO.P,J4,2,Pin_2*%
%TO.N,RX-*%
X152400000Y-109220000D03*
%TO.P,J4,3,Pin_3*%
%TO.N,D-*%
X152400000Y-111760000D03*
%TO.P,J4,4,Pin_4*%
%TO.N,D+*%
X152400000Y-114300000D03*
%TD*%
D14*
%TO.P,J3,1,Pin_1*%
%TO.N,GND*%
X167640000Y-106680000D03*
D15*
%TO.P,J3,2,Pin_2*%
%TO.N,+3V3*%
X167640000Y-109220000D03*
%TO.P,J3,3,Pin_3*%
%TO.N,TX-*%
X167640000Y-111760000D03*
%TO.P,J3,4,Pin_4*%
%TO.N,VBUS*%
X167640000Y-114300000D03*
%TD*%
D16*
%TO.N,GND*%
X165100000Y-115316000D03*
X159766000Y-115316000D03*
%TO.N,VBUS*%
X150368000Y-107188000D03*
%TO.N,+3V3*%
X162814000Y-113284000D03*
%TO.N,RX-*%
X156210000Y-107696000D03*
%TO.N,Net-(J1-PadB5)*%
X154533600Y-115697000D03*
%TD*%
D17*
%TO.N,TX-*%
X160121452Y-107696000D02*
X163576000Y-107696000D01*
X158420000Y-109397452D02*
X160121452Y-107696000D01*
X163576000Y-107696000D02*
X167640000Y-111760000D01*
X158420000Y-109850000D02*
X158420000Y-109397452D01*
%TO.N,GND*%
X155900000Y-109960000D02*
X155900000Y-109784000D01*
X155900000Y-109784000D02*
X156718000Y-108966000D01*
%TO.N,D+*%
X159620000Y-111002548D02*
X158685527Y-111937021D01*
X154588183Y-110560489D02*
X151821511Y-110560489D01*
X155964715Y-111937021D02*
X154588183Y-110560489D01*
X151200489Y-111181511D02*
X151200489Y-113100489D01*
X151200489Y-113100489D02*
X152400000Y-114300000D01*
X151821511Y-110560489D02*
X151200489Y-111181511D01*
X158685527Y-111937021D02*
X155964715Y-111937021D01*
X159620000Y-110550000D02*
X159620000Y-111002548D01*
%TO.N,D-*%
X155757806Y-112436540D02*
X154381275Y-111060009D01*
X153099991Y-111060009D02*
X152400000Y-111760000D01*
X160420000Y-111002548D02*
X158986008Y-112436540D01*
X154381275Y-111060009D02*
X153099991Y-111060009D01*
X160420000Y-110550000D02*
X160420000Y-111002548D01*
X158986008Y-112436540D02*
X155757806Y-112436540D01*
%TO.N,RX-*%
X156210000Y-107696000D02*
X153924000Y-107696000D01*
X153924000Y-107696000D02*
X152400000Y-109220000D01*
%TD*%
%TA.AperFunction,Conductor*%
%TO.N,GND*%
G36*
X154724932Y-104414002D02*
G01*
X154771425Y-104467658D01*
X154781529Y-104537932D01*
X154765930Y-104583001D01*
X154686511Y-104720558D01*
X154681173Y-104732547D01*
X154624647Y-104906518D01*
X154621917Y-104919361D01*
X154607589Y-105055685D01*
X154607245Y-105062244D01*
X154607245Y-105260732D01*
X154611720Y-105275971D01*
X154613110Y-105277176D01*
X154620793Y-105278847D01*
X156455130Y-105278847D01*
X156470369Y-105274372D01*
X156471574Y-105272982D01*
X156473245Y-105265299D01*
X156473245Y-105062244D01*
X156472901Y-105055685D01*
X156458573Y-104919361D01*
X156455843Y-104906518D01*
X156399317Y-104732547D01*
X156393979Y-104720558D01*
X156314560Y-104583001D01*
X156297822Y-104514005D01*
X156321042Y-104446913D01*
X156376849Y-104403026D01*
X156423679Y-104394000D01*
X163626811Y-104394000D01*
X163694932Y-104414002D01*
X163741425Y-104467658D01*
X163751529Y-104537932D01*
X163735930Y-104583001D01*
X163656511Y-104720558D01*
X163651173Y-104732547D01*
X163594647Y-104906518D01*
X163591917Y-104919361D01*
X163577589Y-105055685D01*
X163577245Y-105062244D01*
X163577245Y-105260732D01*
X163581720Y-105275971D01*
X163583110Y-105277176D01*
X163590793Y-105278847D01*
X165425130Y-105278847D01*
X165440369Y-105274372D01*
X165441574Y-105272982D01*
X165443245Y-105265299D01*
X165443245Y-105062244D01*
X165442901Y-105055685D01*
X165428573Y-104919361D01*
X165425843Y-104906518D01*
X165369317Y-104732547D01*
X165363979Y-104720558D01*
X165284560Y-104583001D01*
X165267822Y-104514005D01*
X165291042Y-104446913D01*
X165346849Y-104403026D01*
X165393679Y-104394000D01*
X166740671Y-104394000D01*
X166792810Y-104405294D01*
X166884372Y-104446913D01*
X168280009Y-105081294D01*
X168333747Y-105127692D01*
X168353870Y-105195777D01*
X168333988Y-105263933D01*
X168280415Y-105310521D01*
X168227870Y-105322000D01*
X167912115Y-105322000D01*
X167896876Y-105326475D01*
X167895671Y-105327865D01*
X167894000Y-105335548D01*
X167894000Y-106808000D01*
X167873998Y-106876121D01*
X167820342Y-106922614D01*
X167768000Y-106934000D01*
X166300116Y-106934000D01*
X166284877Y-106938475D01*
X166283672Y-106939865D01*
X166282001Y-106947548D01*
X166282001Y-107574669D01*
X166282371Y-107581490D01*
X166287895Y-107632352D01*
X166291521Y-107647604D01*
X166336676Y-107768054D01*
X166345214Y-107783649D01*
X166421715Y-107885724D01*
X166434276Y-107898285D01*
X166536351Y-107974786D01*
X166551946Y-107983324D01*
X166660827Y-108024142D01*
X166717591Y-108066784D01*
X166742291Y-108133345D01*
X166727083Y-108202694D01*
X166707691Y-108229175D01*
X166587928Y-108354500D01*
X166580629Y-108362138D01*
X166577715Y-108366410D01*
X166577714Y-108366411D01*
X166569298Y-108378749D01*
X166454743Y-108546680D01*
X166439003Y-108580590D01*
X166367058Y-108735583D01*
X166360688Y-108749305D01*
X166300989Y-108964570D01*
X166300440Y-108969707D01*
X166278293Y-109176945D01*
X166251165Y-109242555D01*
X166192873Y-109283083D01*
X166121923Y-109285662D01*
X166063911Y-109252651D01*
X164099655Y-107288395D01*
X164091665Y-107279615D01*
X164091663Y-107279613D01*
X164087416Y-107272920D01*
X164060627Y-107247763D01*
X164035743Y-107224396D01*
X164032901Y-107221641D01*
X164012333Y-107201073D01*
X164008826Y-107198353D01*
X163999804Y-107190647D01*
X163996985Y-107188000D01*
X163966133Y-107159028D01*
X163959181Y-107155206D01*
X163947342Y-107148697D01*
X163930818Y-107137843D01*
X163920132Y-107129555D01*
X163913868Y-107124696D01*
X163906596Y-107121549D01*
X163906594Y-107121548D01*
X163871465Y-107106346D01*
X163860805Y-107101124D01*
X163827284Y-107082695D01*
X163827282Y-107082694D01*
X163820337Y-107078876D01*
X163799559Y-107073541D01*
X163780869Y-107067142D01*
X163761176Y-107058620D01*
X163715552Y-107051394D01*
X163703929Y-107048987D01*
X163669661Y-107040189D01*
X163659188Y-107037500D01*
X163637741Y-107037500D01*
X163618031Y-107035949D01*
X163604677Y-107033834D01*
X163596848Y-107032594D01*
X163550859Y-107036941D01*
X163539004Y-107037500D01*
X160203508Y-107037500D01*
X160191652Y-107036941D01*
X160191649Y-107036941D01*
X160183915Y-107035212D01*
X160128898Y-107036941D01*
X160113083Y-107037438D01*
X160109125Y-107037500D01*
X160080020Y-107037500D01*
X160075620Y-107038056D01*
X160063788Y-107038988D01*
X160017621Y-107040438D01*
X159997031Y-107046420D01*
X159977670Y-107050430D01*
X159970682Y-107051312D01*
X159964248Y-107052125D01*
X159964247Y-107052125D01*
X159956388Y-107053118D01*
X159949023Y-107056034D01*
X159949019Y-107056035D01*
X159913434Y-107070124D01*
X159902204Y-107073969D01*
X159857851Y-107086855D01*
X159851027Y-107090891D01*
X159839395Y-107097770D01*
X159821639Y-107106469D01*
X159801696Y-107114365D01*
X159787477Y-107124696D01*
X159764320Y-107141520D01*
X159754401Y-107148035D01*
X159721475Y-107167508D01*
X159721471Y-107167511D01*
X159714645Y-107171548D01*
X159699484Y-107186709D01*
X159684452Y-107199548D01*
X159667095Y-107212159D01*
X159662045Y-107218263D01*
X159662043Y-107218265D01*
X159637640Y-107247763D01*
X159629651Y-107256541D01*
X158012396Y-108873797D01*
X158003613Y-108881789D01*
X157996920Y-108886036D01*
X157991494Y-108891814D01*
X157948395Y-108937710D01*
X157945640Y-108940552D01*
X157925073Y-108961119D01*
X157922396Y-108964570D01*
X157922356Y-108964622D01*
X157914643Y-108973652D01*
X157912544Y-108975887D01*
X157851330Y-109011850D01*
X157794503Y-109012877D01*
X157741029Y-109001511D01*
X157713780Y-108995719D01*
X157713778Y-108995719D01*
X157707324Y-108994347D01*
X157533166Y-108994347D01*
X157526713Y-108995719D01*
X157526709Y-108995719D01*
X157450820Y-109011850D01*
X157362814Y-109030556D01*
X157356784Y-109033241D01*
X157356783Y-109033241D01*
X157209743Y-109098707D01*
X157209741Y-109098708D01*
X157203713Y-109101392D01*
X157198372Y-109105272D01*
X157198371Y-109105273D01*
X157086304Y-109186695D01*
X157062816Y-109203760D01*
X157002827Y-109270385D01*
X156942382Y-109307623D01*
X156871398Y-109306271D01*
X156812414Y-109266757D01*
X156789359Y-109225008D01*
X156759318Y-109132550D01*
X156753979Y-109120558D01*
X156662515Y-108962138D01*
X156654799Y-108951519D01*
X156532402Y-108815582D01*
X156522639Y-108806791D01*
X156481143Y-108776643D01*
X156437789Y-108720421D01*
X156431714Y-108649685D01*
X156464845Y-108586893D01*
X156503955Y-108559600D01*
X156660722Y-108489803D01*
X156660724Y-108489802D01*
X156666752Y-108487118D01*
X156821253Y-108374866D01*
X156836078Y-108358401D01*
X156944621Y-108237852D01*
X156944622Y-108237851D01*
X156949040Y-108232944D01*
X157044527Y-108067556D01*
X157103542Y-107885928D01*
X157105138Y-107870749D01*
X157122814Y-107702565D01*
X157123504Y-107696000D01*
X157119321Y-107656201D01*
X157104232Y-107512635D01*
X157104232Y-107512633D01*
X157103542Y-107506072D01*
X157044527Y-107324444D01*
X156949040Y-107159056D01*
X156935412Y-107143920D01*
X156825675Y-107022045D01*
X156825674Y-107022044D01*
X156821253Y-107017134D01*
X156666752Y-106904882D01*
X156660724Y-106902198D01*
X156660722Y-106902197D01*
X156498319Y-106829891D01*
X156498318Y-106829891D01*
X156492288Y-106827206D01*
X156305487Y-106787500D01*
X156305996Y-106785106D01*
X156250591Y-106762302D01*
X156209970Y-106704075D01*
X156207276Y-106633130D01*
X156235796Y-106579706D01*
X156294795Y-106514181D01*
X156302515Y-106503556D01*
X156393979Y-106345136D01*
X156399317Y-106333147D01*
X156455843Y-106159176D01*
X156458573Y-106146333D01*
X156472901Y-106010009D01*
X156473245Y-106003450D01*
X163577245Y-106003450D01*
X163577589Y-106010009D01*
X163591917Y-106146333D01*
X163594647Y-106159176D01*
X163651173Y-106333147D01*
X163656511Y-106345136D01*
X163747975Y-106503556D01*
X163755691Y-106514175D01*
X163878088Y-106650112D01*
X163887851Y-106658903D01*
X164035833Y-106766418D01*
X164047205Y-106772984D01*
X164214313Y-106847385D01*
X164226801Y-106851442D01*
X164238525Y-106853935D01*
X164252586Y-106852862D01*
X164256245Y-106842906D01*
X164256245Y-106839586D01*
X164764245Y-106839586D01*
X164768218Y-106853117D01*
X164778713Y-106854626D01*
X164793689Y-106851442D01*
X164806177Y-106847385D01*
X164973284Y-106772984D01*
X164984656Y-106766418D01*
X165132639Y-106658903D01*
X165142402Y-106650112D01*
X165264799Y-106514175D01*
X165272515Y-106503556D01*
X165327751Y-106407885D01*
X166282000Y-106407885D01*
X166286475Y-106423124D01*
X166287865Y-106424329D01*
X166295548Y-106426000D01*
X167367885Y-106426000D01*
X167383124Y-106421525D01*
X167384329Y-106420135D01*
X167386000Y-106412452D01*
X167386000Y-105340116D01*
X167381525Y-105324877D01*
X167380135Y-105323672D01*
X167372452Y-105322001D01*
X166745331Y-105322001D01*
X166738510Y-105322371D01*
X166687648Y-105327895D01*
X166672396Y-105331521D01*
X166551946Y-105376676D01*
X166536351Y-105385214D01*
X166434276Y-105461715D01*
X166421715Y-105474276D01*
X166345214Y-105576351D01*
X166336676Y-105591946D01*
X166291522Y-105712394D01*
X166287895Y-105727649D01*
X166282369Y-105778514D01*
X166282000Y-105785328D01*
X166282000Y-106407885D01*
X165327751Y-106407885D01*
X165363979Y-106345136D01*
X165369317Y-106333147D01*
X165425843Y-106159176D01*
X165428573Y-106146333D01*
X165442901Y-106010009D01*
X165443245Y-106003450D01*
X165443245Y-105804962D01*
X165438770Y-105789723D01*
X165437380Y-105788518D01*
X165429697Y-105786847D01*
X164782360Y-105786847D01*
X164767121Y-105791322D01*
X164765916Y-105792712D01*
X164764245Y-105800395D01*
X164764245Y-106839586D01*
X164256245Y-106839586D01*
X164256245Y-105804962D01*
X164251770Y-105789723D01*
X164250380Y-105788518D01*
X164242697Y-105786847D01*
X163595360Y-105786847D01*
X163580121Y-105791322D01*
X163578916Y-105792712D01*
X163577245Y-105800395D01*
X163577245Y-106003450D01*
X156473245Y-106003450D01*
X156473245Y-105804962D01*
X156468770Y-105789723D01*
X156467380Y-105788518D01*
X156459697Y-105786847D01*
X154625360Y-105786847D01*
X154610121Y-105791322D01*
X154608916Y-105792712D01*
X154607245Y-105800395D01*
X154607245Y-106003450D01*
X154607589Y-106010009D01*
X154621917Y-106146333D01*
X154624647Y-106159176D01*
X154681173Y-106333147D01*
X154686511Y-106345136D01*
X154777975Y-106503556D01*
X154785691Y-106514175D01*
X154908088Y-106650112D01*
X154917851Y-106658903D01*
X155065833Y-106766418D01*
X155077205Y-106772984D01*
X155129783Y-106796393D01*
X155183879Y-106842373D01*
X155204528Y-106910301D01*
X155185176Y-106978609D01*
X155131965Y-107025610D01*
X155078534Y-107037500D01*
X154006056Y-107037500D01*
X153994200Y-107036941D01*
X153994197Y-107036941D01*
X153986463Y-107035212D01*
X153931446Y-107036941D01*
X153915631Y-107037438D01*
X153911673Y-107037500D01*
X153884500Y-107037500D01*
X153816379Y-107017498D01*
X153769886Y-106963842D01*
X153758500Y-106911500D01*
X153758500Y-105781866D01*
X153751745Y-105719684D01*
X153700615Y-105583295D01*
X153613261Y-105466739D01*
X153496705Y-105379385D01*
X153360316Y-105328255D01*
X153298134Y-105321500D01*
X151501866Y-105321500D01*
X151439684Y-105328255D01*
X151303295Y-105379385D01*
X151186739Y-105466739D01*
X151099385Y-105583295D01*
X151048255Y-105719684D01*
X151041500Y-105781866D01*
X151041500Y-106307070D01*
X151021498Y-106375191D01*
X150967842Y-106421684D01*
X150897568Y-106431788D01*
X150841441Y-106409007D01*
X150824752Y-106396882D01*
X150818724Y-106394198D01*
X150818722Y-106394197D01*
X150656319Y-106321891D01*
X150656318Y-106321891D01*
X150650288Y-106319206D01*
X150556888Y-106299353D01*
X150469944Y-106280872D01*
X150469939Y-106280872D01*
X150463487Y-106279500D01*
X150272513Y-106279500D01*
X150266061Y-106280872D01*
X150266056Y-106280872D01*
X150179112Y-106299353D01*
X150085712Y-106319206D01*
X150079682Y-106321891D01*
X150079681Y-106321891D01*
X149917278Y-106394197D01*
X149917276Y-106394198D01*
X149911248Y-106396882D01*
X149905907Y-106400762D01*
X149905906Y-106400763D01*
X149877696Y-106421259D01*
X149810828Y-106445118D01*
X149741677Y-106429037D01*
X149692197Y-106378123D01*
X149683401Y-106357002D01*
X149630080Y-106186857D01*
X149625071Y-106175169D01*
X149534447Y-106011680D01*
X149527196Y-106001247D01*
X149405544Y-105859312D01*
X149396353Y-105850559D01*
X149248636Y-105735979D01*
X149237876Y-105729255D01*
X149070140Y-105646719D01*
X149058233Y-105642291D01*
X148991531Y-105624917D01*
X148977436Y-105625351D01*
X148974000Y-105633532D01*
X148974000Y-107805867D01*
X148977973Y-107819398D01*
X148984075Y-107820275D01*
X149147145Y-107760277D01*
X149158573Y-107754703D01*
X149317440Y-107656201D01*
X149327504Y-107648451D01*
X149378011Y-107600689D01*
X149441249Y-107568417D01*
X149511896Y-107575457D01*
X149567521Y-107619574D01*
X149573703Y-107629237D01*
X149625658Y-107719226D01*
X149625661Y-107719231D01*
X149628960Y-107724944D01*
X149633378Y-107729851D01*
X149633379Y-107729852D01*
X149748450Y-107857651D01*
X149756747Y-107866866D01*
X149800483Y-107898642D01*
X149905286Y-107974786D01*
X149911248Y-107979118D01*
X149917276Y-107981802D01*
X149917278Y-107981803D01*
X150079681Y-108054109D01*
X150085712Y-108056794D01*
X150179113Y-108076647D01*
X150266056Y-108095128D01*
X150266061Y-108095128D01*
X150272513Y-108096500D01*
X150463487Y-108096500D01*
X150469939Y-108095128D01*
X150469944Y-108095128D01*
X150556887Y-108076647D01*
X150650288Y-108056794D01*
X150656319Y-108054109D01*
X150818722Y-107981803D01*
X150818724Y-107981802D01*
X150824752Y-107979118D01*
X150830105Y-107975229D01*
X150973909Y-107870749D01*
X150973911Y-107870747D01*
X150979253Y-107866866D01*
X150983675Y-107861955D01*
X150988455Y-107857651D01*
X151052463Y-107826933D01*
X151122916Y-107835696D01*
X151173592Y-107875719D01*
X151186739Y-107893261D01*
X151303295Y-107980615D01*
X151311704Y-107983767D01*
X151311705Y-107983768D01*
X151420451Y-108024535D01*
X151477216Y-108067176D01*
X151501916Y-108133738D01*
X151486709Y-108203087D01*
X151467316Y-108229568D01*
X151340629Y-108362138D01*
X151337715Y-108366410D01*
X151337714Y-108366411D01*
X151329298Y-108378749D01*
X151214743Y-108546680D01*
X151199003Y-108580590D01*
X151127058Y-108735583D01*
X151120688Y-108749305D01*
X151060989Y-108964570D01*
X151037251Y-109186695D01*
X151037548Y-109191848D01*
X151037548Y-109191851D01*
X151044433Y-109311252D01*
X151050110Y-109409715D01*
X151051247Y-109414761D01*
X151051248Y-109414767D01*
X151060470Y-109455685D01*
X151099222Y-109627639D01*
X151183266Y-109834616D01*
X151185965Y-109839020D01*
X151295835Y-110018313D01*
X151314373Y-110086847D01*
X151292916Y-110154524D01*
X151277497Y-110173243D01*
X150792884Y-110657856D01*
X150784104Y-110665846D01*
X150784102Y-110665848D01*
X150777409Y-110670095D01*
X150771983Y-110675873D01*
X150771982Y-110675874D01*
X150728885Y-110721768D01*
X150726130Y-110724610D01*
X150705562Y-110745178D01*
X150702845Y-110748681D01*
X150695137Y-110757706D01*
X150663517Y-110791378D01*
X150659696Y-110798329D01*
X150659695Y-110798330D01*
X150653186Y-110810169D01*
X150642332Y-110826693D01*
X150634507Y-110836782D01*
X150629185Y-110843643D01*
X150626038Y-110850915D01*
X150626037Y-110850917D01*
X150610835Y-110886046D01*
X150605613Y-110896706D01*
X150587526Y-110929606D01*
X150583365Y-110937174D01*
X150578030Y-110957952D01*
X150571631Y-110976642D01*
X150563109Y-110996335D01*
X150560679Y-111011680D01*
X150555883Y-111041959D01*
X150553476Y-111053582D01*
X150541989Y-111098323D01*
X150541989Y-111119770D01*
X150540438Y-111139480D01*
X150537083Y-111160663D01*
X150537829Y-111168554D01*
X150541430Y-111206649D01*
X150541989Y-111218507D01*
X150541989Y-113018433D01*
X150541430Y-113030289D01*
X150539701Y-113038026D01*
X150539950Y-113045948D01*
X150541927Y-113108858D01*
X150541989Y-113112816D01*
X150541989Y-113141921D01*
X150542545Y-113146321D01*
X150543477Y-113158153D01*
X150544927Y-113204320D01*
X150549507Y-113220082D01*
X150550908Y-113224905D01*
X150554919Y-113244271D01*
X150557607Y-113265553D01*
X150560523Y-113272918D01*
X150560524Y-113272922D01*
X150574615Y-113308510D01*
X150578454Y-113319720D01*
X150591344Y-113364089D01*
X150602264Y-113382554D01*
X150610955Y-113400294D01*
X150618854Y-113420245D01*
X150632045Y-113438401D01*
X150646005Y-113457615D01*
X150652522Y-113467537D01*
X150671996Y-113500466D01*
X150671999Y-113500470D01*
X150676036Y-113507296D01*
X150691200Y-113522460D01*
X150704040Y-113537493D01*
X150716648Y-113554846D01*
X150752241Y-113584291D01*
X150761021Y-113592281D01*
X151042101Y-113873361D01*
X151076127Y-113935673D01*
X151074424Y-113996125D01*
X151060989Y-114044570D01*
X151037251Y-114266695D01*
X151037548Y-114271848D01*
X151037548Y-114271851D01*
X151043011Y-114366590D01*
X151050110Y-114489715D01*
X151051247Y-114494761D01*
X151051248Y-114494767D01*
X151071119Y-114582939D01*
X151099222Y-114707639D01*
X151137461Y-114801811D01*
X151179720Y-114905882D01*
X151183266Y-114914616D01*
X151299987Y-115105088D01*
X151446250Y-115273938D01*
X151618126Y-115416632D01*
X151811000Y-115529338D01*
X152019692Y-115609030D01*
X152024760Y-115610061D01*
X152024763Y-115610062D01*
X152132017Y-115631883D01*
X152238597Y-115653567D01*
X152243772Y-115653757D01*
X152243774Y-115653757D01*
X152456673Y-115661564D01*
X152456677Y-115661564D01*
X152461837Y-115661753D01*
X152466957Y-115661097D01*
X152466959Y-115661097D01*
X152678288Y-115634025D01*
X152678289Y-115634025D01*
X152683416Y-115633368D01*
X152688366Y-115631883D01*
X152892429Y-115570661D01*
X152892434Y-115570659D01*
X152897384Y-115569174D01*
X153097994Y-115470896D01*
X153279860Y-115341173D01*
X153438096Y-115183489D01*
X153450826Y-115165774D01*
X153565435Y-115006277D01*
X153568453Y-115002077D01*
X153667430Y-114801811D01*
X153732370Y-114588069D01*
X153761529Y-114366590D01*
X153763156Y-114300000D01*
X153744852Y-114077361D01*
X153690431Y-113860702D01*
X153601354Y-113655840D01*
X153515067Y-113522460D01*
X153482822Y-113472617D01*
X153482820Y-113472614D01*
X153480014Y-113468277D01*
X153329670Y-113303051D01*
X153325619Y-113299852D01*
X153325615Y-113299848D01*
X153305548Y-113284000D01*
X161900496Y-113284000D01*
X161901186Y-113290565D01*
X161919463Y-113464457D01*
X161920458Y-113473928D01*
X161979473Y-113655556D01*
X161982776Y-113661278D01*
X161982777Y-113661279D01*
X161999179Y-113689688D01*
X162074960Y-113820944D01*
X162079378Y-113825851D01*
X162079379Y-113825852D01*
X162110758Y-113860702D01*
X162202747Y-113962866D01*
X162357248Y-114075118D01*
X162363276Y-114077802D01*
X162363278Y-114077803D01*
X162525681Y-114150109D01*
X162531712Y-114152794D01*
X162625112Y-114172647D01*
X162712056Y-114191128D01*
X162712061Y-114191128D01*
X162718513Y-114192500D01*
X162909487Y-114192500D01*
X162915939Y-114191128D01*
X162915944Y-114191128D01*
X163002888Y-114172647D01*
X163096288Y-114152794D01*
X163102319Y-114150109D01*
X163264722Y-114077803D01*
X163264724Y-114077802D01*
X163270752Y-114075118D01*
X163425253Y-113962866D01*
X163517242Y-113860702D01*
X163548621Y-113825852D01*
X163548622Y-113825851D01*
X163553040Y-113820944D01*
X163628821Y-113689688D01*
X163645223Y-113661279D01*
X163645224Y-113661278D01*
X163648527Y-113655556D01*
X163707542Y-113473928D01*
X163708538Y-113464457D01*
X163726814Y-113290565D01*
X163727504Y-113284000D01*
X163723329Y-113244273D01*
X163708232Y-113100635D01*
X163708232Y-113100633D01*
X163707542Y-113094072D01*
X163648527Y-112912444D01*
X163553040Y-112747056D01*
X163520346Y-112710745D01*
X163429675Y-112610045D01*
X163429674Y-112610044D01*
X163425253Y-112605134D01*
X163270752Y-112492882D01*
X163264724Y-112490198D01*
X163264722Y-112490197D01*
X163102319Y-112417891D01*
X163102318Y-112417891D01*
X163096288Y-112415206D01*
X163002887Y-112395353D01*
X162915944Y-112376872D01*
X162915939Y-112376872D01*
X162909487Y-112375500D01*
X162718513Y-112375500D01*
X162712061Y-112376872D01*
X162712056Y-112376872D01*
X162625113Y-112395353D01*
X162531712Y-112415206D01*
X162525682Y-112417891D01*
X162525681Y-112417891D01*
X162363278Y-112490197D01*
X162363276Y-112490198D01*
X162357248Y-112492882D01*
X162202747Y-112605134D01*
X162198326Y-112610044D01*
X162198325Y-112610045D01*
X162107655Y-112710745D01*
X162074960Y-112747056D01*
X161979473Y-112912444D01*
X161920458Y-113094072D01*
X161919768Y-113100633D01*
X161919768Y-113100635D01*
X161904671Y-113244273D01*
X161900496Y-113284000D01*
X153305548Y-113284000D01*
X153158414Y-113167800D01*
X153158410Y-113167798D01*
X153154359Y-113164598D01*
X153113053Y-113141796D01*
X153063084Y-113091364D01*
X153048312Y-113021921D01*
X153073428Y-112955516D01*
X153100780Y-112928909D01*
X153169048Y-112880214D01*
X153279860Y-112801173D01*
X153328429Y-112752774D01*
X153425339Y-112656201D01*
X153438096Y-112643489D01*
X153497594Y-112560689D01*
X153565435Y-112466277D01*
X153568453Y-112462077D01*
X153571494Y-112455925D01*
X153665136Y-112266453D01*
X153665137Y-112266451D01*
X153667430Y-112261811D01*
X153732370Y-112048069D01*
X153761335Y-111828061D01*
X153790058Y-111763135D01*
X153849323Y-111724044D01*
X153886257Y-111718509D01*
X154056325Y-111718509D01*
X154124446Y-111738511D01*
X154145420Y-111755414D01*
X155234151Y-112844145D01*
X155242141Y-112852925D01*
X155246390Y-112859620D01*
X155252168Y-112865046D01*
X155252169Y-112865047D01*
X155298063Y-112908144D01*
X155300905Y-112910899D01*
X155321473Y-112931467D01*
X155324976Y-112934184D01*
X155334001Y-112941892D01*
X155367673Y-112973512D01*
X155374624Y-112977333D01*
X155374625Y-112977334D01*
X155386464Y-112983843D01*
X155402988Y-112994697D01*
X155413077Y-113002522D01*
X155419938Y-113007844D01*
X155427210Y-113010991D01*
X155427212Y-113010992D01*
X155462341Y-113026194D01*
X155473001Y-113031416D01*
X155502974Y-113047894D01*
X155513469Y-113053664D01*
X155534247Y-113058999D01*
X155552937Y-113065398D01*
X155572630Y-113073920D01*
X155607369Y-113079422D01*
X155618254Y-113081146D01*
X155629877Y-113083553D01*
X155646396Y-113087794D01*
X155674618Y-113095040D01*
X155696065Y-113095040D01*
X155715775Y-113096591D01*
X155736958Y-113099946D01*
X155782947Y-113095599D01*
X155794802Y-113095040D01*
X158903952Y-113095040D01*
X158915808Y-113095599D01*
X158915811Y-113095599D01*
X158923545Y-113097328D01*
X158994377Y-113095102D01*
X158998335Y-113095040D01*
X159027440Y-113095040D01*
X159031840Y-113094484D01*
X159043672Y-113093552D01*
X159089839Y-113092102D01*
X159110429Y-113086120D01*
X159129790Y-113082110D01*
X159137424Y-113081146D01*
X159143212Y-113080415D01*
X159143213Y-113080415D01*
X159151072Y-113079422D01*
X159158437Y-113076506D01*
X159158441Y-113076505D01*
X159194029Y-113062414D01*
X159205239Y-113058575D01*
X159249608Y-113045685D01*
X159268073Y-113034765D01*
X159285813Y-113026074D01*
X159305764Y-113018175D01*
X159343137Y-112991022D01*
X159353056Y-112984507D01*
X159385985Y-112965033D01*
X159385989Y-112965030D01*
X159392815Y-112960993D01*
X159407979Y-112945829D01*
X159423013Y-112932988D01*
X159440365Y-112920381D01*
X159469811Y-112884787D01*
X159477800Y-112876008D01*
X160827605Y-111526203D01*
X160836385Y-111518213D01*
X160836387Y-111518211D01*
X160843080Y-111513964D01*
X160891605Y-111462290D01*
X160894359Y-111459449D01*
X160914927Y-111438881D01*
X160917647Y-111435374D01*
X160925353Y-111426352D01*
X160951544Y-111398461D01*
X160956972Y-111392681D01*
X160958830Y-111389302D01*
X161013617Y-111347053D01*
X161085529Y-111341222D01*
X161126701Y-111349974D01*
X161126712Y-111349975D01*
X161133166Y-111351347D01*
X161307324Y-111351347D01*
X161313777Y-111349975D01*
X161313781Y-111349975D01*
X161392500Y-111333243D01*
X161477676Y-111315138D01*
X161506401Y-111302349D01*
X161630747Y-111246987D01*
X161630749Y-111246986D01*
X161636777Y-111244302D01*
X161672281Y-111218507D01*
X161772330Y-111145817D01*
X161772332Y-111145815D01*
X161777674Y-111141934D01*
X161782096Y-111137023D01*
X161889789Y-111017418D01*
X161889790Y-111017417D01*
X161894208Y-111012510D01*
X161928715Y-110952742D01*
X161980098Y-110903749D01*
X162049812Y-110890314D01*
X162061679Y-110892020D01*
X162082121Y-110895960D01*
X162091795Y-110892087D01*
X162295630Y-110688252D01*
X162357942Y-110654226D01*
X162384725Y-110651347D01*
X162507324Y-110651347D01*
X162513777Y-110649975D01*
X162513781Y-110649975D01*
X162618105Y-110627800D01*
X162677676Y-110615138D01*
X162705166Y-110602899D01*
X162775532Y-110593465D01*
X162839829Y-110623571D01*
X162877642Y-110683660D01*
X162876967Y-110754653D01*
X162869840Y-110771899D01*
X162868866Y-110773332D01*
X162866331Y-110779670D01*
X162838405Y-110849489D01*
X162810511Y-110891791D01*
X162454467Y-111247835D01*
X162447707Y-111260215D01*
X162451218Y-111264905D01*
X162556944Y-111311977D01*
X162569423Y-111316032D01*
X162720460Y-111348135D01*
X162782934Y-111381863D01*
X162815740Y-111437922D01*
X162829015Y-111486117D01*
X162914743Y-111648714D01*
X162919148Y-111653927D01*
X162919151Y-111653931D01*
X163007448Y-111758416D01*
X163033386Y-111789109D01*
X163038810Y-111793256D01*
X163038811Y-111793257D01*
X163173989Y-111896609D01*
X163173993Y-111896612D01*
X163179410Y-111900753D01*
X163346000Y-111978435D01*
X163426087Y-111996337D01*
X163520342Y-112017406D01*
X163520348Y-112017407D01*
X163525386Y-112018533D01*
X163531003Y-112018847D01*
X163666169Y-112018847D01*
X163802982Y-112003984D01*
X163892079Y-111974000D01*
X163970729Y-111947532D01*
X163970732Y-111947531D01*
X163977194Y-111945356D01*
X164134752Y-111850685D01*
X164235499Y-111755414D01*
X164263352Y-111729075D01*
X164263353Y-111729074D01*
X164268306Y-111724390D01*
X164371624Y-111572362D01*
X164374156Y-111566032D01*
X164374158Y-111566028D01*
X164437349Y-111408038D01*
X164439886Y-111401695D01*
X164456679Y-111300256D01*
X164487537Y-111236318D01*
X164529737Y-111205729D01*
X164603284Y-111172984D01*
X164614656Y-111166418D01*
X164762639Y-111058903D01*
X164772402Y-111050112D01*
X164894799Y-110914175D01*
X164902515Y-110903556D01*
X164993979Y-110745136D01*
X164999317Y-110733147D01*
X165055843Y-110559176D01*
X165058573Y-110546333D01*
X165072475Y-110414064D01*
X165099488Y-110348408D01*
X165157710Y-110307778D01*
X165228655Y-110305075D01*
X165286880Y-110338140D01*
X166282101Y-111333361D01*
X166316127Y-111395673D01*
X166314424Y-111456125D01*
X166300989Y-111504570D01*
X166277251Y-111726695D01*
X166277548Y-111731848D01*
X166277548Y-111731851D01*
X166283936Y-111842644D01*
X166290110Y-111949715D01*
X166291247Y-111954761D01*
X166291248Y-111954767D01*
X166305619Y-112018533D01*
X166339222Y-112167639D01*
X166423266Y-112374616D01*
X166425965Y-112379020D01*
X166506471Y-112510394D01*
X166539987Y-112565088D01*
X166686250Y-112733938D01*
X166858126Y-112876632D01*
X166916767Y-112910899D01*
X166931445Y-112919476D01*
X166980169Y-112971114D01*
X166993240Y-113040897D01*
X166966509Y-113106669D01*
X166926055Y-113140027D01*
X166913607Y-113146507D01*
X166909474Y-113149610D01*
X166909471Y-113149612D01*
X166739227Y-113277435D01*
X166734965Y-113280635D01*
X166731393Y-113284373D01*
X166594097Y-113428045D01*
X166580629Y-113442138D01*
X166577715Y-113446410D01*
X166577714Y-113446411D01*
X166565404Y-113464457D01*
X166454743Y-113626680D01*
X166360688Y-113829305D01*
X166300989Y-114044570D01*
X166277251Y-114266695D01*
X166277548Y-114271848D01*
X166277548Y-114271851D01*
X166283011Y-114366590D01*
X166290110Y-114489715D01*
X166291247Y-114494761D01*
X166291248Y-114494767D01*
X166311119Y-114582939D01*
X166339222Y-114707639D01*
X166377461Y-114801811D01*
X166419720Y-114905882D01*
X166423266Y-114914616D01*
X166539987Y-115105088D01*
X166686250Y-115273938D01*
X166858126Y-115416632D01*
X167051000Y-115529338D01*
X167259692Y-115609030D01*
X167264760Y-115610061D01*
X167264763Y-115610062D01*
X167372017Y-115631883D01*
X167478597Y-115653567D01*
X167483772Y-115653757D01*
X167483774Y-115653757D01*
X167696673Y-115661564D01*
X167696677Y-115661564D01*
X167701837Y-115661753D01*
X167706957Y-115661097D01*
X167706959Y-115661097D01*
X167918288Y-115634025D01*
X167918289Y-115634025D01*
X167923416Y-115633368D01*
X167928366Y-115631883D01*
X168132429Y-115570661D01*
X168132434Y-115570659D01*
X168137384Y-115569174D01*
X168337994Y-115470896D01*
X168519860Y-115341173D01*
X168678096Y-115183489D01*
X168690826Y-115165774D01*
X168805435Y-115006277D01*
X168808453Y-115002077D01*
X168907430Y-114801811D01*
X168917442Y-114768858D01*
X168956383Y-114709494D01*
X169021237Y-114680607D01*
X169091413Y-114691369D01*
X169144631Y-114738362D01*
X169164000Y-114805487D01*
X169164000Y-115394393D01*
X169146045Y-115459218D01*
X168681209Y-116233944D01*
X168659079Y-116270827D01*
X168606880Y-116318949D01*
X168551035Y-116332000D01*
X155434266Y-116332000D01*
X155366145Y-116311998D01*
X155319652Y-116258342D01*
X155309548Y-116188068D01*
X155325147Y-116143000D01*
X155364823Y-116074279D01*
X155364824Y-116074278D01*
X155368127Y-116068556D01*
X155427142Y-115886928D01*
X155436270Y-115800085D01*
X155446414Y-115703565D01*
X155447104Y-115697000D01*
X155443380Y-115661564D01*
X155427832Y-115513635D01*
X155427832Y-115513633D01*
X155427142Y-115507072D01*
X155368127Y-115325444D01*
X155272640Y-115160056D01*
X155144853Y-115018134D01*
X155008435Y-114919020D01*
X154995694Y-114909763D01*
X154995693Y-114909762D01*
X154990352Y-114905882D01*
X154984324Y-114903198D01*
X154984322Y-114903197D01*
X154821919Y-114830891D01*
X154821918Y-114830891D01*
X154815888Y-114828206D01*
X154709004Y-114805487D01*
X154635544Y-114789872D01*
X154635539Y-114789872D01*
X154629087Y-114788500D01*
X154438113Y-114788500D01*
X154431661Y-114789872D01*
X154431656Y-114789872D01*
X154358196Y-114805487D01*
X154251312Y-114828206D01*
X154245282Y-114830891D01*
X154245281Y-114830891D01*
X154082878Y-114903197D01*
X154082876Y-114903198D01*
X154076848Y-114905882D01*
X154071507Y-114909762D01*
X154071506Y-114909763D01*
X154058765Y-114919020D01*
X153922347Y-115018134D01*
X153794560Y-115160056D01*
X153699073Y-115325444D01*
X153640058Y-115507072D01*
X153639368Y-115513633D01*
X153639368Y-115513635D01*
X153623820Y-115661564D01*
X153620096Y-115697000D01*
X153620786Y-115703565D01*
X153630931Y-115800085D01*
X153640058Y-115886928D01*
X153699073Y-116068556D01*
X153702376Y-116074278D01*
X153702377Y-116074279D01*
X153742053Y-116143000D01*
X153758791Y-116211996D01*
X153735570Y-116279087D01*
X153679763Y-116322974D01*
X153632934Y-116332000D01*
X150793402Y-116332000D01*
X150729914Y-116314836D01*
X146550519Y-113876855D01*
X146501756Y-113825254D01*
X146488632Y-113755481D01*
X146515314Y-113689688D01*
X146576328Y-113647785D01*
X146721264Y-113602365D01*
X146732952Y-113597356D01*
X146891111Y-113509686D01*
X146901544Y-113502435D01*
X147038843Y-113384756D01*
X147047612Y-113375547D01*
X147158442Y-113232667D01*
X147165178Y-113221887D01*
X147245019Y-113059626D01*
X147249445Y-113047727D01*
X147264082Y-112991531D01*
X147263648Y-112977436D01*
X147255467Y-112974000D01*
X145892000Y-112974000D01*
X145823879Y-112953998D01*
X145777386Y-112900342D01*
X145766000Y-112848000D01*
X145766000Y-112447885D01*
X146274000Y-112447885D01*
X146278475Y-112463124D01*
X146279865Y-112464329D01*
X146287548Y-112466000D01*
X147253901Y-112466000D01*
X147267432Y-112462027D01*
X147268309Y-112455925D01*
X147213170Y-112306064D01*
X147207608Y-112294658D01*
X147112309Y-112140956D01*
X147104560Y-112130895D01*
X146980310Y-111999504D01*
X146970690Y-111991201D01*
X146969967Y-111990695D01*
X147744191Y-111990695D01*
X147751467Y-112062331D01*
X147754021Y-112074770D01*
X147809920Y-112253143D01*
X147814929Y-112264831D01*
X147905553Y-112428320D01*
X147912804Y-112438753D01*
X148034456Y-112580688D01*
X148043647Y-112589441D01*
X148191364Y-112704021D01*
X148202124Y-112710745D01*
X148369860Y-112793281D01*
X148381767Y-112797709D01*
X148448469Y-112815083D01*
X148462564Y-112814649D01*
X148466000Y-112806468D01*
X148466000Y-112805867D01*
X148974000Y-112805867D01*
X148977973Y-112819398D01*
X148984075Y-112820275D01*
X149147145Y-112760277D01*
X149158573Y-112754703D01*
X149317440Y-112656201D01*
X149327504Y-112648451D01*
X149463322Y-112520014D01*
X149471625Y-112510394D01*
X149578845Y-112357269D01*
X149585042Y-112346180D01*
X149659284Y-112174618D01*
X149663123Y-112162515D01*
X149698801Y-111991736D01*
X149697678Y-111977675D01*
X149687571Y-111974000D01*
X148992115Y-111974000D01*
X148976876Y-111978475D01*
X148975671Y-111979865D01*
X148974000Y-111987548D01*
X148974000Y-112805867D01*
X148466000Y-112805867D01*
X148466000Y-111992115D01*
X148461525Y-111976876D01*
X148460135Y-111975671D01*
X148452452Y-111974000D01*
X147760610Y-111974000D01*
X147746250Y-111978216D01*
X147744191Y-111990695D01*
X146969967Y-111990695D01*
X146822557Y-111887477D01*
X146811469Y-111881280D01*
X146645505Y-111809460D01*
X146633393Y-111805618D01*
X146454866Y-111768323D01*
X146445334Y-111767085D01*
X146442111Y-111767000D01*
X146292115Y-111767000D01*
X146276876Y-111771475D01*
X146275671Y-111772865D01*
X146274000Y-111780548D01*
X146274000Y-112447885D01*
X145766000Y-112447885D01*
X145766000Y-111785115D01*
X145761525Y-111769876D01*
X145760135Y-111768671D01*
X145752452Y-111767000D01*
X145644808Y-111767000D01*
X145638433Y-111767323D01*
X145503733Y-111781005D01*
X145491293Y-111783559D01*
X145318736Y-111837635D01*
X145307048Y-111842644D01*
X145221086Y-111890294D01*
X145151810Y-111905826D01*
X145085133Y-111881438D01*
X145042226Y-111824873D01*
X145034000Y-111780092D01*
X145034000Y-111448264D01*
X147741199Y-111448264D01*
X147742322Y-111462325D01*
X147752429Y-111466000D01*
X148447885Y-111466000D01*
X148463124Y-111461525D01*
X148464329Y-111460135D01*
X148466000Y-111452452D01*
X148466000Y-111447885D01*
X148974000Y-111447885D01*
X148978475Y-111463124D01*
X148979865Y-111464329D01*
X148987548Y-111466000D01*
X149679390Y-111466000D01*
X149693750Y-111461784D01*
X149695809Y-111449305D01*
X149688533Y-111377669D01*
X149685979Y-111365230D01*
X149630080Y-111186857D01*
X149625071Y-111175169D01*
X149534447Y-111011680D01*
X149527196Y-111001247D01*
X149405544Y-110859312D01*
X149396353Y-110850559D01*
X149248636Y-110735979D01*
X149237876Y-110729255D01*
X149070140Y-110646719D01*
X149058233Y-110642291D01*
X148991531Y-110624917D01*
X148977436Y-110625351D01*
X148974000Y-110633532D01*
X148974000Y-111447885D01*
X148466000Y-111447885D01*
X148466000Y-110634133D01*
X148462027Y-110620602D01*
X148455925Y-110619725D01*
X148292855Y-110679723D01*
X148281427Y-110685297D01*
X148122560Y-110783799D01*
X148112496Y-110791549D01*
X147976678Y-110919986D01*
X147968375Y-110929606D01*
X147861155Y-111082731D01*
X147854958Y-111093820D01*
X147780716Y-111265382D01*
X147776877Y-111277485D01*
X147741199Y-111448264D01*
X145034000Y-111448264D01*
X145034000Y-106990695D01*
X147744191Y-106990695D01*
X147751467Y-107062331D01*
X147754021Y-107074770D01*
X147809920Y-107253143D01*
X147814929Y-107264831D01*
X147905553Y-107428320D01*
X147912804Y-107438753D01*
X148034456Y-107580688D01*
X148043647Y-107589441D01*
X148191364Y-107704021D01*
X148202124Y-107710745D01*
X148369860Y-107793281D01*
X148381767Y-107797709D01*
X148448469Y-107815083D01*
X148462564Y-107814649D01*
X148466000Y-107806468D01*
X148466000Y-106992115D01*
X148461525Y-106976876D01*
X148460135Y-106975671D01*
X148452452Y-106974000D01*
X147760610Y-106974000D01*
X147746250Y-106978216D01*
X147744191Y-106990695D01*
X145034000Y-106990695D01*
X145034000Y-106664763D01*
X145054002Y-106596642D01*
X145107658Y-106550149D01*
X145177932Y-106540045D01*
X145221469Y-106554774D01*
X145228529Y-106558720D01*
X145394495Y-106630540D01*
X145406607Y-106634382D01*
X145585134Y-106671677D01*
X145594666Y-106672915D01*
X145597889Y-106673000D01*
X145747885Y-106673000D01*
X145763124Y-106668525D01*
X145764329Y-106667135D01*
X145766000Y-106659452D01*
X145766000Y-106654885D01*
X146274000Y-106654885D01*
X146278475Y-106670124D01*
X146279865Y-106671329D01*
X146287548Y-106673000D01*
X146395192Y-106673000D01*
X146401567Y-106672677D01*
X146536267Y-106658995D01*
X146548707Y-106656441D01*
X146721264Y-106602365D01*
X146732952Y-106597356D01*
X146891111Y-106509686D01*
X146901544Y-106502435D01*
X146964747Y-106448264D01*
X147741199Y-106448264D01*
X147742322Y-106462325D01*
X147752429Y-106466000D01*
X148447885Y-106466000D01*
X148463124Y-106461525D01*
X148464329Y-106460135D01*
X148466000Y-106452452D01*
X148466000Y-105634133D01*
X148462027Y-105620602D01*
X148455925Y-105619725D01*
X148292855Y-105679723D01*
X148281427Y-105685297D01*
X148122560Y-105783799D01*
X148112496Y-105791549D01*
X147976678Y-105919986D01*
X147968375Y-105929606D01*
X147861155Y-106082731D01*
X147854958Y-106093820D01*
X147780716Y-106265382D01*
X147776877Y-106277485D01*
X147741199Y-106448264D01*
X146964747Y-106448264D01*
X147038843Y-106384756D01*
X147047612Y-106375547D01*
X147158442Y-106232667D01*
X147165178Y-106221887D01*
X147245019Y-106059626D01*
X147249445Y-106047727D01*
X147264082Y-105991531D01*
X147263648Y-105977436D01*
X147255467Y-105974000D01*
X146292115Y-105974000D01*
X146276876Y-105978475D01*
X146275671Y-105979865D01*
X146274000Y-105987548D01*
X146274000Y-106654885D01*
X145766000Y-106654885D01*
X145766000Y-105592000D01*
X145786002Y-105523879D01*
X145839658Y-105477386D01*
X145892000Y-105466000D01*
X147253901Y-105466000D01*
X147267432Y-105462027D01*
X147268309Y-105455925D01*
X147213170Y-105306064D01*
X147207608Y-105294658D01*
X147112309Y-105140956D01*
X147104560Y-105130895D01*
X146980310Y-104999504D01*
X146970690Y-104991201D01*
X146817328Y-104883815D01*
X146818588Y-104882015D01*
X146775918Y-104838502D01*
X146761505Y-104768984D01*
X146786964Y-104702709D01*
X146834951Y-104664494D01*
X147014236Y-104583001D01*
X147405191Y-104405294D01*
X147457330Y-104394000D01*
X154656811Y-104394000D01*
X154724932Y-104414002D01*
G37*
%TD.AperFunction*%
%TA.AperFunction,Conductor*%
G36*
X157245753Y-110563020D02*
G01*
X157356779Y-110612452D01*
X157356787Y-110612455D01*
X157362814Y-110615138D01*
X157422385Y-110627800D01*
X157526709Y-110649975D01*
X157526713Y-110649975D01*
X157533166Y-110651347D01*
X157655765Y-110651347D01*
X157723886Y-110671349D01*
X157744860Y-110688252D01*
X157945051Y-110888443D01*
X157958995Y-110896057D01*
X157990442Y-110893808D01*
X157994865Y-110892158D01*
X158064240Y-110907243D01*
X158112984Y-110954836D01*
X158146282Y-111012510D01*
X158196437Y-111068212D01*
X158227153Y-111132219D01*
X158218388Y-111202672D01*
X158172925Y-111257203D01*
X158102799Y-111278521D01*
X157668899Y-111278521D01*
X157600778Y-111258519D01*
X157579804Y-111241616D01*
X157105410Y-110767222D01*
X157071384Y-110704910D01*
X157076449Y-110634095D01*
X157118996Y-110577259D01*
X157185516Y-110552448D01*
X157245753Y-110563020D01*
G37*
%TD.AperFunction*%
%TA.AperFunction,Conductor*%
G36*
X156730500Y-109698849D02*
G01*
X156776993Y-109752505D01*
X156786325Y-109809676D01*
X156787871Y-109809676D01*
X156787871Y-109816282D01*
X156787181Y-109822847D01*
X156787871Y-109829412D01*
X156799848Y-109943365D01*
X156805385Y-109996051D01*
X156859203Y-110161685D01*
X156862506Y-110167407D01*
X156862507Y-110167408D01*
X156871526Y-110183029D01*
X156888264Y-110252024D01*
X156865044Y-110319116D01*
X156809237Y-110363003D01*
X156738561Y-110369752D01*
X156673312Y-110335124D01*
X156537847Y-110199659D01*
X156514385Y-110186847D01*
X155772245Y-110186847D01*
X155704124Y-110166845D01*
X155657631Y-110113189D01*
X155646245Y-110060847D01*
X155646245Y-109804847D01*
X155666247Y-109736726D01*
X155719903Y-109690233D01*
X155772245Y-109678847D01*
X156662379Y-109678847D01*
X156730500Y-109698849D01*
G37*
%TD.AperFunction*%
%TA.AperFunction,Conductor*%
G36*
X164336366Y-109698849D02*
G01*
X164382859Y-109752505D01*
X164394245Y-109804847D01*
X164394245Y-110060847D01*
X164374243Y-110128968D01*
X164320587Y-110175461D01*
X164268245Y-110186847D01*
X163533570Y-110186847D01*
X163507925Y-110194377D01*
X163367178Y-110335124D01*
X163304866Y-110369150D01*
X163234051Y-110364085D01*
X163177215Y-110321538D01*
X163152404Y-110255018D01*
X163168964Y-110183029D01*
X163177983Y-110167408D01*
X163177984Y-110167407D01*
X163181287Y-110161685D01*
X163235105Y-109996051D01*
X163240643Y-109943365D01*
X163252619Y-109829412D01*
X163253309Y-109822847D01*
X163252619Y-109816282D01*
X163252619Y-109809676D01*
X163254329Y-109809676D01*
X163265568Y-109748190D01*
X163314065Y-109696338D01*
X163378111Y-109678847D01*
X164268245Y-109678847D01*
X164336366Y-109698849D01*
G37*
%TD.AperFunction*%
%TD*%
M02*
