M48
; DRILL file {KiCad (6.0.0)} date Mon Jul 25 11:20:21 2022
; FORMAT={-:-/ absolute / metric / decimal}
; #@! TF.CreationDate,2022-07-25T11:20:21-04:00
; #@! TF.GenerationSoftware,Kicad,Pcbnew,(6.0.0)
; #@! TF.FileFunction,MixedPlating,1,4
FMAT,2
METRIC
; #@! TA.AperFunction,Plated,PTH,ViaDrill
T1C0.400
; #@! TA.AperFunction,Plated,PTH,ComponentDrill
T2C0.400
; #@! TA.AperFunction,Plated,PTH,ComponentDrill
T3C0.500
; #@! TA.AperFunction,Plated,PTH,ComponentDrill
T4C0.550
; #@! TA.AperFunction,Plated,PTH,ComponentDrill
T5C1.000
; #@! TA.AperFunction,NonPlated,NPTH,ComponentDrill
T6C0.675
%
G90
G05
T1
X150.368Y-107.188
X154.534Y-115.697
X156.21Y-107.696
X159.766Y-115.316
X162.814Y-113.284
X165.1Y-115.316
T2
X157.22Y-110.523
X157.62Y-109.823
X158.42Y-109.823
X158.82Y-110.523
X159.22Y-109.823
X159.62Y-110.523
X160.42Y-110.523
X160.82Y-109.823
X161.22Y-110.523
X161.62Y-109.823
X162.42Y-109.823
X162.82Y-110.523
T5
X152.4Y-106.68
X152.4Y-109.22
X152.4Y-111.76
X152.4Y-114.3
X167.64Y-106.68
X167.64Y-109.22
X167.64Y-111.76
X167.64Y-114.3
T6
X156.27Y-111.173
X163.62Y-111.173
T3
G00X146.345Y-105.72
M15
G01X145.695Y-105.72
M16
G05
G00X146.345Y-112.72
M15
G01X145.695Y-112.72
M16
G05
T4
G00X148.72Y-106.57
M15
G01X148.72Y-106.87
M16
G05
G00X148.72Y-111.57
M15
G01X148.72Y-111.87
M16
G05
G00X155.54Y-105.833
M15
G01X155.54Y-105.233
M16
G05
G00X155.9Y-110.233
M15
G01X155.9Y-109.633
M16
G05
G00X164.14Y-110.233
M15
G01X164.14Y-109.633
M16
G05
G00X164.51Y-105.833
M15
G01X164.51Y-105.233
M16
G05
T0
M30
